<mxfile host="app.diagrams.net" modified="2024-02-27T21:46:35.837Z" agent="Mozilla/5.0 (Windows NT 10.0; Win64; x64) AppleWebKit/537.36 (KHTML, like Gecko) Chrome/122.0.0.0 Safari/537.36" etag="BEEWEx6H5I5Hw4GjOkj1" version="23.1.7" type="device" pages="3">
  <diagram id="Ao4ffBRijvySt7VsWCoj" name="V2.0 - UseCase">
    <mxGraphModel dx="463" dy="1699" grid="1" gridSize="10" guides="1" tooltips="1" connect="1" arrows="1" fold="1" page="1" pageScale="1" pageWidth="827" pageHeight="1169" math="0" shadow="0">
      <root>
        <mxCell id="0" />
        <mxCell id="1" parent="0" />
        <mxCell id="iW0gxGhA79KuDhxNbX3h-1" value="User&lt;br&gt;" style="shape=umlActor;verticalLabelPosition=bottom;verticalAlign=top;html=1;outlineConnect=0;" parent="1" vertex="1">
          <mxGeometry x="1390" y="260" width="30" height="60" as="geometry" />
        </mxCell>
        <mxCell id="iW0gxGhA79KuDhxNbX3h-2" value="Choisir son type de sauvegarde" style="ellipse;whiteSpace=wrap;html=1;" parent="1" vertex="1">
          <mxGeometry x="2390" y="340" width="120" height="80" as="geometry" />
        </mxCell>
        <mxCell id="iW0gxGhA79KuDhxNbX3h-3" value="Choisir Nom" style="ellipse;whiteSpace=wrap;html=1;" parent="1" vertex="1">
          <mxGeometry x="1960" y="340" width="120" height="80" as="geometry" />
        </mxCell>
        <mxCell id="iW0gxGhA79KuDhxNbX3h-4" value="Choisir Source" style="ellipse;whiteSpace=wrap;html=1;" parent="1" vertex="1">
          <mxGeometry x="2100" y="340" width="120" height="80" as="geometry" />
        </mxCell>
        <mxCell id="iW0gxGhA79KuDhxNbX3h-5" value="Choisir Destination" style="ellipse;whiteSpace=wrap;html=1;" parent="1" vertex="1">
          <mxGeometry x="2240" y="340" width="120" height="80" as="geometry" />
        </mxCell>
        <mxCell id="iW0gxGhA79KuDhxNbX3h-6" value="Lancer le programme" style="ellipse;whiteSpace=wrap;html=1;" parent="1" vertex="1">
          <mxGeometry x="1480" y="250" width="120" height="80" as="geometry" />
        </mxCell>
        <mxCell id="iW0gxGhA79KuDhxNbX3h-7" value="Use Case UML V2.0 : L&#39;utilisateur effectue une ou plusieurs sauvegarde de fichier/dossier" style="rounded=0;whiteSpace=wrap;html=1;" parent="1" vertex="1">
          <mxGeometry x="1840" y="-50" width="340" height="90" as="geometry" />
        </mxCell>
        <mxCell id="iW0gxGhA79KuDhxNbX3h-8" value="En option (Revenir à l&#39;étape d&#39;avant)" style="ellipse;whiteSpace=wrap;html=1;" parent="1" vertex="1">
          <mxGeometry x="2440" y="720" width="120" height="80" as="geometry" />
        </mxCell>
        <mxCell id="iW0gxGhA79KuDhxNbX3h-9" value="Créer Sauvegarde" style="ellipse;whiteSpace=wrap;html=1;" parent="1" vertex="1">
          <mxGeometry x="1810" y="340" width="120" height="80" as="geometry" />
        </mxCell>
        <mxCell id="iW0gxGhA79KuDhxNbX3h-10" value="Lancer Sauvegarde" style="ellipse;whiteSpace=wrap;html=1;" parent="1" vertex="1">
          <mxGeometry x="1810" y="140" width="120" height="80" as="geometry" />
        </mxCell>
        <mxCell id="iW0gxGhA79KuDhxNbX3h-11" value="Choisir Sauvegarde&lt;br&gt;(1-3, 1; 3)" style="ellipse;whiteSpace=wrap;html=1;" parent="1" vertex="1">
          <mxGeometry x="1980" y="140" width="120" height="80" as="geometry" />
        </mxCell>
        <mxCell id="iW0gxGhA79KuDhxNbX3h-12" value="" style="endArrow=none;html=1;rounded=0;exitX=0.5;exitY=0.5;exitDx=0;exitDy=0;exitPerimeter=0;" parent="1" source="iW0gxGhA79KuDhxNbX3h-1" target="iW0gxGhA79KuDhxNbX3h-6" edge="1">
          <mxGeometry width="50" height="50" relative="1" as="geometry">
            <mxPoint x="1420" y="460" as="sourcePoint" />
            <mxPoint x="1470" y="410" as="targetPoint" />
          </mxGeometry>
        </mxCell>
        <mxCell id="iW0gxGhA79KuDhxNbX3h-13" value="" style="endArrow=none;html=1;rounded=0;" parent="1" source="iW0gxGhA79KuDhxNbX3h-6" target="iW0gxGhA79KuDhxNbX3h-20" edge="1">
          <mxGeometry width="50" height="50" relative="1" as="geometry">
            <mxPoint x="1590" y="380" as="sourcePoint" />
            <mxPoint x="1650" y="290" as="targetPoint" />
          </mxGeometry>
        </mxCell>
        <mxCell id="iW0gxGhA79KuDhxNbX3h-14" value="" style="endArrow=none;html=1;rounded=0;" parent="1" source="iW0gxGhA79KuDhxNbX3h-10" target="iW0gxGhA79KuDhxNbX3h-11" edge="1">
          <mxGeometry width="50" height="50" relative="1" as="geometry">
            <mxPoint x="1435" y="320" as="sourcePoint" />
            <mxPoint x="1510" y="320" as="targetPoint" />
          </mxGeometry>
        </mxCell>
        <mxCell id="iW0gxGhA79KuDhxNbX3h-15" value="" style="endArrow=none;html=1;rounded=0;" parent="1" source="iW0gxGhA79KuDhxNbX3h-9" target="iW0gxGhA79KuDhxNbX3h-3" edge="1">
          <mxGeometry width="50" height="50" relative="1" as="geometry">
            <mxPoint x="1465" y="350" as="sourcePoint" />
            <mxPoint x="1540" y="350" as="targetPoint" />
          </mxGeometry>
        </mxCell>
        <mxCell id="iW0gxGhA79KuDhxNbX3h-16" value="" style="endArrow=none;html=1;rounded=0;" parent="1" source="iW0gxGhA79KuDhxNbX3h-3" edge="1">
          <mxGeometry width="50" height="50" relative="1" as="geometry">
            <mxPoint x="2110" y="470" as="sourcePoint" />
            <mxPoint x="2100" y="380" as="targetPoint" />
          </mxGeometry>
        </mxCell>
        <mxCell id="iW0gxGhA79KuDhxNbX3h-17" value="" style="endArrow=none;html=1;rounded=0;" parent="1" source="iW0gxGhA79KuDhxNbX3h-5" target="iW0gxGhA79KuDhxNbX3h-2" edge="1">
          <mxGeometry width="50" height="50" relative="1" as="geometry">
            <mxPoint x="2300" y="380" as="sourcePoint" />
            <mxPoint x="1560" y="370" as="targetPoint" />
          </mxGeometry>
        </mxCell>
        <mxCell id="iW0gxGhA79KuDhxNbX3h-18" value="" style="endArrow=none;html=1;rounded=0;" parent="1" source="iW0gxGhA79KuDhxNbX3h-4" target="iW0gxGhA79KuDhxNbX3h-5" edge="1">
          <mxGeometry width="50" height="50" relative="1" as="geometry">
            <mxPoint x="1495" y="380" as="sourcePoint" />
            <mxPoint x="1570" y="380" as="targetPoint" />
          </mxGeometry>
        </mxCell>
        <mxCell id="iW0gxGhA79KuDhxNbX3h-19" value="" style="endArrow=classic;html=1;rounded=0;" parent="1" source="iW0gxGhA79KuDhxNbX3h-37" target="iW0gxGhA79KuDhxNbX3h-20" edge="1">
          <mxGeometry width="50" height="50" relative="1" as="geometry">
            <mxPoint x="2600" y="340" as="sourcePoint" />
            <mxPoint x="1870" y="280" as="targetPoint" />
            <Array as="points">
              <mxPoint x="2320" y="310" />
            </Array>
          </mxGeometry>
        </mxCell>
        <mxCell id="iW0gxGhA79KuDhxNbX3h-20" value="Choisir option" style="ellipse;whiteSpace=wrap;html=1;" parent="1" vertex="1">
          <mxGeometry x="1660" y="250" width="120" height="80" as="geometry" />
        </mxCell>
        <mxCell id="iW0gxGhA79KuDhxNbX3h-21" value="" style="endArrow=none;html=1;rounded=0;" parent="1" source="iW0gxGhA79KuDhxNbX3h-20" target="iW0gxGhA79KuDhxNbX3h-10" edge="1">
          <mxGeometry width="50" height="50" relative="1" as="geometry">
            <mxPoint x="1415" y="300" as="sourcePoint" />
            <mxPoint x="1490" y="300" as="targetPoint" />
          </mxGeometry>
        </mxCell>
        <mxCell id="iW0gxGhA79KuDhxNbX3h-22" value="" style="endArrow=none;html=1;rounded=0;" parent="1" source="iW0gxGhA79KuDhxNbX3h-9" target="iW0gxGhA79KuDhxNbX3h-20" edge="1">
          <mxGeometry width="50" height="50" relative="1" as="geometry">
            <mxPoint x="1425" y="310" as="sourcePoint" />
            <mxPoint x="1500" y="310" as="targetPoint" />
          </mxGeometry>
        </mxCell>
        <mxCell id="iW0gxGhA79KuDhxNbX3h-23" value="" style="endArrow=classic;html=1;rounded=0;entryX=1.015;entryY=0.39;entryDx=0;entryDy=0;entryPerimeter=0;" parent="1" source="iW0gxGhA79KuDhxNbX3h-11" target="iW0gxGhA79KuDhxNbX3h-20" edge="1">
          <mxGeometry width="50" height="50" relative="1" as="geometry">
            <mxPoint x="2220" y="220" as="sourcePoint" />
            <mxPoint x="2030" y="150" as="targetPoint" />
            <Array as="points">
              <mxPoint x="1960" y="250" />
            </Array>
          </mxGeometry>
        </mxCell>
        <mxCell id="iW0gxGhA79KuDhxNbX3h-24" value="Paramètres" style="ellipse;whiteSpace=wrap;html=1;" parent="1" vertex="1">
          <mxGeometry x="1494" y="667.5" width="120" height="80" as="geometry" />
        </mxCell>
        <mxCell id="iW0gxGhA79KuDhxNbX3h-25" value="" style="endArrow=none;html=1;rounded=0;" parent="1" source="iW0gxGhA79KuDhxNbX3h-24" target="iW0gxGhA79KuDhxNbX3h-20" edge="1">
          <mxGeometry width="50" height="50" relative="1" as="geometry">
            <mxPoint x="1839" y="361" as="sourcePoint" />
            <mxPoint x="1781" y="319" as="targetPoint" />
          </mxGeometry>
        </mxCell>
        <mxCell id="iW0gxGhA79KuDhxNbX3h-26" value="Changer Langue" style="ellipse;whiteSpace=wrap;html=1;" parent="1" vertex="1">
          <mxGeometry x="1674" y="667.5" width="120" height="80" as="geometry" />
        </mxCell>
        <mxCell id="iW0gxGhA79KuDhxNbX3h-27" value="" style="endArrow=none;html=1;rounded=0;" parent="1" source="iW0gxGhA79KuDhxNbX3h-24" target="iW0gxGhA79KuDhxNbX3h-26" edge="1">
          <mxGeometry width="50" height="50" relative="1" as="geometry">
            <mxPoint x="1556" y="679.5" as="sourcePoint" />
            <mxPoint x="1502" y="565.5" as="targetPoint" />
          </mxGeometry>
        </mxCell>
        <mxCell id="iW0gxGhA79KuDhxNbX3h-28" value="" style="endArrow=none;html=1;rounded=0;" parent="1" source="iW0gxGhA79KuDhxNbX3h-24" target="iW0gxGhA79KuDhxNbX3h-31" edge="1">
          <mxGeometry width="50" height="50" relative="1" as="geometry">
            <mxPoint x="1634" y="717.5" as="sourcePoint" />
            <mxPoint x="1688.7120637034454" y="786.2617511932654" as="targetPoint" />
            <Array as="points">
              <mxPoint x="1740" y="810" />
            </Array>
          </mxGeometry>
        </mxCell>
        <mxCell id="iW0gxGhA79KuDhxNbX3h-29" value="Choisir format Log" style="ellipse;whiteSpace=wrap;html=1;" parent="1" vertex="1">
          <mxGeometry x="1674" y="540" width="120" height="80" as="geometry" />
        </mxCell>
        <mxCell id="iW0gxGhA79KuDhxNbX3h-30" value="" style="endArrow=none;html=1;rounded=0;" parent="1" source="iW0gxGhA79KuDhxNbX3h-24" target="iW0gxGhA79KuDhxNbX3h-29" edge="1">
          <mxGeometry width="50" height="50" relative="1" as="geometry">
            <mxPoint x="1609" y="744" as="sourcePoint" />
            <mxPoint x="1699" y="796" as="targetPoint" />
          </mxGeometry>
        </mxCell>
        <mxCell id="iW0gxGhA79KuDhxNbX3h-31" value="Retour" style="ellipse;whiteSpace=wrap;html=1;" parent="1" vertex="1">
          <mxGeometry x="1850" y="667.5" width="120" height="80" as="geometry" />
        </mxCell>
        <mxCell id="iW0gxGhA79KuDhxNbX3h-32" value="" style="endArrow=none;html=1;rounded=0;" parent="1" source="iW0gxGhA79KuDhxNbX3h-31" target="iW0gxGhA79KuDhxNbX3h-29" edge="1">
          <mxGeometry width="50" height="50" relative="1" as="geometry">
            <mxPoint x="1605" y="689" as="sourcePoint" />
            <mxPoint x="1703" y="619" as="targetPoint" />
          </mxGeometry>
        </mxCell>
        <mxCell id="iW0gxGhA79KuDhxNbX3h-33" value="" style="endArrow=none;html=1;rounded=0;" parent="1" source="iW0gxGhA79KuDhxNbX3h-31" target="iW0gxGhA79KuDhxNbX3h-26" edge="1">
          <mxGeometry width="50" height="50" relative="1" as="geometry">
            <mxPoint x="1615" y="699" as="sourcePoint" />
            <mxPoint x="1713" y="629" as="targetPoint" />
          </mxGeometry>
        </mxCell>
        <mxCell id="iW0gxGhA79KuDhxNbX3h-34" value="" style="endArrow=classic;html=1;rounded=0;" parent="1" source="iW0gxGhA79KuDhxNbX3h-31" target="iW0gxGhA79KuDhxNbX3h-20" edge="1">
          <mxGeometry width="50" height="50" relative="1" as="geometry">
            <mxPoint x="2014" y="222" as="sourcePoint" />
            <mxPoint x="1792" y="291" as="targetPoint" />
            <Array as="points">
              <mxPoint x="1830" y="450" />
            </Array>
          </mxGeometry>
        </mxCell>
        <mxCell id="iW0gxGhA79KuDhxNbX3h-35" value="Choisir option" style="ellipse;whiteSpace=wrap;html=1;" parent="1" vertex="1">
          <mxGeometry x="2550" y="340" width="120" height="80" as="geometry" />
        </mxCell>
        <mxCell id="iW0gxGhA79KuDhxNbX3h-36" value="Saisir extention à chiffrer" style="ellipse;whiteSpace=wrap;html=1;" parent="1" vertex="1">
          <mxGeometry x="2710" y="340" width="120" height="80" as="geometry" />
        </mxCell>
        <mxCell id="iW0gxGhA79KuDhxNbX3h-37" value="Retour au menu" style="ellipse;whiteSpace=wrap;html=1;" parent="1" vertex="1">
          <mxGeometry x="2680" y="220" width="120" height="80" as="geometry" />
        </mxCell>
        <mxCell id="iW0gxGhA79KuDhxNbX3h-38" value="" style="endArrow=none;html=1;rounded=0;" parent="1" source="iW0gxGhA79KuDhxNbX3h-2" target="iW0gxGhA79KuDhxNbX3h-35" edge="1">
          <mxGeometry width="50" height="50" relative="1" as="geometry">
            <mxPoint x="2540" y="320" as="sourcePoint" />
            <mxPoint x="2400" y="390" as="targetPoint" />
          </mxGeometry>
        </mxCell>
        <mxCell id="iW0gxGhA79KuDhxNbX3h-39" value="" style="endArrow=none;html=1;rounded=0;" parent="1" source="iW0gxGhA79KuDhxNbX3h-36" target="iW0gxGhA79KuDhxNbX3h-35" edge="1">
          <mxGeometry width="50" height="50" relative="1" as="geometry">
            <mxPoint x="2380" y="400" as="sourcePoint" />
            <mxPoint x="2410" y="400" as="targetPoint" />
          </mxGeometry>
        </mxCell>
        <mxCell id="iW0gxGhA79KuDhxNbX3h-40" value="" style="endArrow=none;html=1;rounded=0;" parent="1" source="iW0gxGhA79KuDhxNbX3h-36" target="iW0gxGhA79KuDhxNbX3h-37" edge="1">
          <mxGeometry width="50" height="50" relative="1" as="geometry">
            <mxPoint x="2390" y="410" as="sourcePoint" />
            <mxPoint x="2420" y="410" as="targetPoint" />
          </mxGeometry>
        </mxCell>
        <mxCell id="iW0gxGhA79KuDhxNbX3h-41" value="" style="endArrow=classic;html=1;rounded=0;" parent="1" source="iW0gxGhA79KuDhxNbX3h-35" target="iW0gxGhA79KuDhxNbX3h-37" edge="1">
          <mxGeometry width="50" height="50" relative="1" as="geometry">
            <mxPoint x="2013" y="222" as="sourcePoint" />
            <mxPoint x="1792" y="291" as="targetPoint" />
            <Array as="points" />
          </mxGeometry>
        </mxCell>
      </root>
    </mxGraphModel>
  </diagram>
  <diagram id="wQaWH93i5OwRiXwxNOr4" name="V2.0 - Classe">
    <mxGraphModel dx="2670" dy="1926" grid="1" gridSize="10" guides="1" tooltips="1" connect="1" arrows="1" fold="1" page="1" pageScale="1" pageWidth="827" pageHeight="1169" math="0" shadow="0">
      <root>
        <mxCell id="0" />
        <mxCell id="1" parent="0" />
        <mxCell id="TfWbrsgbRibgP_C1F9pa-1" value="Save" style="swimlane;fontStyle=1;align=center;verticalAlign=top;childLayout=stackLayout;horizontal=1;startSize=26;horizontalStack=0;resizeParent=1;resizeParentMax=0;resizeLast=0;collapsible=1;marginBottom=0;whiteSpace=wrap;html=1;" parent="1" vertex="1">
          <mxGeometry x="405" y="110" width="680" height="324" as="geometry" />
        </mxCell>
        <mxCell id="TfWbrsgbRibgP_C1F9pa-2" value="- number : int" style="text;strokeColor=none;fillColor=none;align=left;verticalAlign=top;spacingLeft=4;spacingRight=4;overflow=hidden;rotatable=0;points=[[0,0.5],[1,0.5]];portConstraint=eastwest;whiteSpace=wrap;html=1;" parent="TfWbrsgbRibgP_C1F9pa-1" vertex="1">
          <mxGeometry y="26" width="680" height="26" as="geometry" />
        </mxCell>
        <mxCell id="TfWbrsgbRibgP_C1F9pa-3" value="- name : string" style="text;strokeColor=none;fillColor=none;align=left;verticalAlign=top;spacingLeft=4;spacingRight=4;overflow=hidden;rotatable=0;points=[[0,0.5],[1,0.5]];portConstraint=eastwest;whiteSpace=wrap;html=1;" parent="TfWbrsgbRibgP_C1F9pa-1" vertex="1">
          <mxGeometry y="52" width="680" height="26" as="geometry" />
        </mxCell>
        <mxCell id="TfWbrsgbRibgP_C1F9pa-4" value="- targetPath : string" style="text;strokeColor=none;fillColor=none;align=left;verticalAlign=top;spacingLeft=4;spacingRight=4;overflow=hidden;rotatable=0;points=[[0,0.5],[1,0.5]];portConstraint=eastwest;whiteSpace=wrap;html=1;" parent="TfWbrsgbRibgP_C1F9pa-1" vertex="1">
          <mxGeometry y="78" width="680" height="24" as="geometry" />
        </mxCell>
        <mxCell id="ImVTX-Y8HeXE9b-Mqr-R-2" value="-&amp;nbsp;encryptList : List&amp;lt;string&amp;gt;" style="text;strokeColor=none;fillColor=none;align=left;verticalAlign=top;spacingLeft=4;spacingRight=4;overflow=hidden;rotatable=0;points=[[0,0.5],[1,0.5]];portConstraint=eastwest;whiteSpace=wrap;html=1;" parent="TfWbrsgbRibgP_C1F9pa-1" vertex="1">
          <mxGeometry y="102" width="680" height="24" as="geometry" />
        </mxCell>
        <mxCell id="ImVTX-Y8HeXE9b-Mqr-R-3" value="-&amp;nbsp;encryptKey : string&amp;nbsp;" style="text;strokeColor=none;fillColor=none;align=left;verticalAlign=top;spacingLeft=4;spacingRight=4;overflow=hidden;rotatable=0;points=[[0,0.5],[1,0.5]];portConstraint=eastwest;whiteSpace=wrap;html=1;" parent="TfWbrsgbRibgP_C1F9pa-1" vertex="1">
          <mxGeometry y="126" width="680" height="24" as="geometry" />
        </mxCell>
        <mxCell id="TfWbrsgbRibgP_C1F9pa-5" value="" style="line;strokeWidth=1;fillColor=none;align=left;verticalAlign=middle;spacingTop=-1;spacingLeft=3;spacingRight=3;rotatable=0;labelPosition=right;points=[];portConstraint=eastwest;strokeColor=inherit;" parent="TfWbrsgbRibgP_C1F9pa-1" vertex="1">
          <mxGeometry y="150" width="680" height="8" as="geometry" />
        </mxCell>
        <mxCell id="TfWbrsgbRibgP_C1F9pa-6" value="+ ExecuteSave(out long encryptionTime):bool" style="text;strokeColor=none;fillColor=none;align=left;verticalAlign=top;spacingLeft=4;spacingRight=4;overflow=hidden;rotatable=0;points=[[0,0.5],[1,0.5]];portConstraint=eastwest;whiteSpace=wrap;html=1;" parent="TfWbrsgbRibgP_C1F9pa-1" vertex="1">
          <mxGeometry y="158" width="680" height="26" as="geometry" />
        </mxCell>
        <mxCell id="TfWbrsgbRibgP_C1F9pa-7" value="- CopyDirectory(sourcePath: string, targetPath String, encryptionList; List&amp;lt;String&amp;gt;, encryptKey, totalEncryptionTime: out long)" style="text;strokeColor=none;fillColor=none;align=left;verticalAlign=top;spacingLeft=4;spacingRight=4;overflow=hidden;rotatable=0;points=[[0,0.5],[1,0.5]];portConstraint=eastwest;whiteSpace=wrap;html=1;" parent="TfWbrsgbRibgP_C1F9pa-1" vertex="1">
          <mxGeometry y="184" width="680" height="26" as="geometry" />
        </mxCell>
        <mxCell id="TfWbrsgbRibgP_C1F9pa-8" value="+CalculateTransferTime&lt;span style=&quot;background-color: initial;&quot;&gt;()&lt;/span&gt;" style="text;strokeColor=none;fillColor=none;align=left;verticalAlign=top;spacingLeft=4;spacingRight=4;overflow=hidden;rotatable=0;points=[[0,0.5],[1,0.5]];portConstraint=eastwest;whiteSpace=wrap;html=1;" parent="TfWbrsgbRibgP_C1F9pa-1" vertex="1">
          <mxGeometry y="210" width="680" height="26" as="geometry" />
        </mxCell>
        <mxCell id="TfWbrsgbRibgP_C1F9pa-9" value="+CanFileBeCopied&lt;span style=&quot;background-color: initial;&quot;&gt;(sourceFile: string, destinationFile: string):boolean&lt;/span&gt;" style="text;strokeColor=none;fillColor=none;align=left;verticalAlign=top;spacingLeft=4;spacingRight=4;overflow=hidden;rotatable=0;points=[[0,0.5],[1,0.5]];portConstraint=eastwest;whiteSpace=wrap;html=1;fontStyle=2" parent="TfWbrsgbRibgP_C1F9pa-1" vertex="1">
          <mxGeometry y="236" width="680" height="28" as="geometry" />
        </mxCell>
        <mxCell id="TfWbrsgbRibgP_C1F9pa-10" value="+GetTypeName&lt;span style=&quot;background-color: initial;&quot;&gt;():string&lt;/span&gt;" style="text;strokeColor=none;fillColor=none;align=left;verticalAlign=top;spacingLeft=4;spacingRight=4;overflow=hidden;rotatable=0;points=[[0,0.5],[1,0.5]];portConstraint=eastwest;whiteSpace=wrap;html=1;fontStyle=2" parent="TfWbrsgbRibgP_C1F9pa-1" vertex="1">
          <mxGeometry y="264" width="680" height="30" as="geometry" />
        </mxCell>
        <mxCell id="40IbmHt8th1dj7Pp88jX-2" value="+ProcessCryptoSoft&lt;span style=&quot;background-color: initial;&quot;&gt;(source: string, dest: string, cle: string, encryptiionDuration: out double):int&lt;/span&gt;" style="text;strokeColor=none;fillColor=none;align=left;verticalAlign=top;spacingLeft=4;spacingRight=4;overflow=hidden;rotatable=0;points=[[0,0.5],[1,0.5]];portConstraint=eastwest;whiteSpace=wrap;html=1;fontStyle=2" parent="TfWbrsgbRibgP_C1F9pa-1" vertex="1">
          <mxGeometry y="294" width="680" height="30" as="geometry" />
        </mxCell>
        <mxCell id="TfWbrsgbRibgP_C1F9pa-11" value="SaveTotal" style="swimlane;fontStyle=1;align=center;verticalAlign=top;childLayout=stackLayout;horizontal=1;startSize=26;horizontalStack=0;resizeParent=1;resizeParentMax=0;resizeLast=0;collapsible=1;marginBottom=0;whiteSpace=wrap;html=1;" parent="1" vertex="1">
          <mxGeometry x="1156" y="210" width="170" height="90" as="geometry" />
        </mxCell>
        <mxCell id="TfWbrsgbRibgP_C1F9pa-12" value="" style="line;strokeWidth=1;fillColor=none;align=left;verticalAlign=middle;spacingTop=-1;spacingLeft=3;spacingRight=3;rotatable=0;labelPosition=right;points=[];portConstraint=eastwest;strokeColor=inherit;" parent="TfWbrsgbRibgP_C1F9pa-11" vertex="1">
          <mxGeometry y="26" width="170" height="8" as="geometry" />
        </mxCell>
        <mxCell id="TfWbrsgbRibgP_C1F9pa-13" value="+CanFileBeCopied&lt;span style=&quot;background-color: initial;&quot;&gt;():boolean&lt;/span&gt;" style="text;strokeColor=none;fillColor=none;align=left;verticalAlign=top;spacingLeft=4;spacingRight=4;overflow=hidden;rotatable=0;points=[[0,0.5],[1,0.5]];portConstraint=eastwest;whiteSpace=wrap;html=1;" parent="TfWbrsgbRibgP_C1F9pa-11" vertex="1">
          <mxGeometry y="34" width="170" height="30" as="geometry" />
        </mxCell>
        <mxCell id="TfWbrsgbRibgP_C1F9pa-14" value="+ getTypeName() : string" style="text;strokeColor=none;fillColor=none;align=left;verticalAlign=top;spacingLeft=4;spacingRight=4;overflow=hidden;rotatable=0;points=[[0,0.5],[1,0.5]];portConstraint=eastwest;whiteSpace=wrap;html=1;" parent="TfWbrsgbRibgP_C1F9pa-11" vertex="1">
          <mxGeometry y="64" width="170" height="26" as="geometry" />
        </mxCell>
        <mxCell id="TfWbrsgbRibgP_C1F9pa-15" value="SaveDifferential" style="swimlane;fontStyle=1;align=center;verticalAlign=top;childLayout=stackLayout;horizontal=1;startSize=26;horizontalStack=0;resizeParent=1;resizeParentMax=0;resizeLast=0;collapsible=1;marginBottom=0;whiteSpace=wrap;html=1;" parent="1" vertex="1">
          <mxGeometry x="1180" y="370" width="170" height="90" as="geometry" />
        </mxCell>
        <mxCell id="TfWbrsgbRibgP_C1F9pa-16" value="" style="line;strokeWidth=1;fillColor=none;align=left;verticalAlign=middle;spacingTop=-1;spacingLeft=3;spacingRight=3;rotatable=0;labelPosition=right;points=[];portConstraint=eastwest;strokeColor=inherit;" parent="TfWbrsgbRibgP_C1F9pa-15" vertex="1">
          <mxGeometry y="26" width="170" height="8" as="geometry" />
        </mxCell>
        <mxCell id="TfWbrsgbRibgP_C1F9pa-17" value="+CanFileBeCopied&lt;span style=&quot;background-color: initial;&quot;&gt;():boolean&lt;/span&gt;" style="text;strokeColor=none;fillColor=none;align=left;verticalAlign=top;spacingLeft=4;spacingRight=4;overflow=hidden;rotatable=0;points=[[0,0.5],[1,0.5]];portConstraint=eastwest;whiteSpace=wrap;html=1;" parent="TfWbrsgbRibgP_C1F9pa-15" vertex="1">
          <mxGeometry y="34" width="170" height="30" as="geometry" />
        </mxCell>
        <mxCell id="TfWbrsgbRibgP_C1F9pa-18" value="+ getTypeName() : string" style="text;strokeColor=none;fillColor=none;align=left;verticalAlign=top;spacingLeft=4;spacingRight=4;overflow=hidden;rotatable=0;points=[[0,0.5],[1,0.5]];portConstraint=eastwest;whiteSpace=wrap;html=1;" parent="TfWbrsgbRibgP_C1F9pa-15" vertex="1">
          <mxGeometry y="64" width="170" height="26" as="geometry" />
        </mxCell>
        <mxCell id="TfWbrsgbRibgP_C1F9pa-24" value="ModelView" style="swimlane;fontStyle=1;align=center;verticalAlign=top;childLayout=stackLayout;horizontal=1;startSize=26;horizontalStack=0;resizeParent=1;resizeParentMax=0;resizeLast=0;collapsible=1;marginBottom=0;whiteSpace=wrap;html=1;" parent="1" vertex="1">
          <mxGeometry x="270" y="-664" width="450" height="372" as="geometry" />
        </mxCell>
        <mxCell id="pmSFgPjwjbdni7MCNhGs-3" value="- _instance : ModelView" style="text;strokeColor=none;fillColor=none;align=left;verticalAlign=top;spacingLeft=4;spacingRight=4;overflow=hidden;rotatable=0;points=[[0,0.5],[1,0.5]];portConstraint=eastwest;whiteSpace=wrap;html=1;" vertex="1" parent="TfWbrsgbRibgP_C1F9pa-24">
          <mxGeometry y="26" width="450" height="26" as="geometry" />
        </mxCell>
        <mxCell id="pmSFgPjwjbdni7MCNhGs-4" value="- lang : string" style="text;strokeColor=none;fillColor=none;align=left;verticalAlign=top;spacingLeft=4;spacingRight=4;overflow=hidden;rotatable=0;points=[[0,0.5],[1,0.5]];portConstraint=eastwest;whiteSpace=wrap;html=1;" vertex="1" parent="TfWbrsgbRibgP_C1F9pa-24">
          <mxGeometry y="52" width="450" height="26" as="geometry" />
        </mxCell>
        <mxCell id="pmSFgPjwjbdni7MCNhGs-2" value="- resourceManager : ResourceManager" style="text;strokeColor=none;fillColor=none;align=left;verticalAlign=top;spacingLeft=4;spacingRight=4;overflow=hidden;rotatable=0;points=[[0,0.5],[1,0.5]];portConstraint=eastwest;whiteSpace=wrap;html=1;" vertex="1" parent="TfWbrsgbRibgP_C1F9pa-24">
          <mxGeometry y="78" width="450" height="26" as="geometry" />
        </mxCell>
        <mxCell id="TfWbrsgbRibgP_C1F9pa-25" value="" style="line;strokeWidth=1;fillColor=none;align=left;verticalAlign=middle;spacingTop=-1;spacingLeft=3;spacingRight=3;rotatable=0;labelPosition=right;points=[];portConstraint=eastwest;strokeColor=inherit;" parent="TfWbrsgbRibgP_C1F9pa-24" vertex="1">
          <mxGeometry y="104" width="450" height="8" as="geometry" />
        </mxCell>
        <mxCell id="TfWbrsgbRibgP_C1F9pa-26" value="+ CreateSave(name, targetPath, sourceRepo, typeSave, encryptList, encryptKey)" style="text;strokeColor=none;fillColor=none;align=left;verticalAlign=top;spacingLeft=4;spacingRight=4;overflow=hidden;rotatable=0;points=[[0,0.5],[1,0.5]];portConstraint=eastwest;whiteSpace=wrap;html=1;" parent="TfWbrsgbRibgP_C1F9pa-24" vertex="1">
          <mxGeometry y="112" width="450" height="26" as="geometry" />
        </mxCell>
        <mxCell id="TfWbrsgbRibgP_C1F9pa-27" value="+ runSavesFromNumbers(string)" style="text;strokeColor=none;fillColor=none;align=left;verticalAlign=top;spacingLeft=4;spacingRight=4;overflow=hidden;rotatable=0;points=[[0,0.5],[1,0.5]];portConstraint=eastwest;whiteSpace=wrap;html=1;" parent="TfWbrsgbRibgP_C1F9pa-24" vertex="1">
          <mxGeometry y="138" width="450" height="26" as="geometry" />
        </mxCell>
        <mxCell id="pmSFgPjwjbdni7MCNhGs-5" value="+ deleteSave(int number)" style="text;strokeColor=none;fillColor=none;align=left;verticalAlign=top;spacingLeft=4;spacingRight=4;overflow=hidden;rotatable=0;points=[[0,0.5],[1,0.5]];portConstraint=eastwest;whiteSpace=wrap;html=1;" vertex="1" parent="TfWbrsgbRibgP_C1F9pa-24">
          <mxGeometry y="164" width="450" height="26" as="geometry" />
        </mxCell>
        <mxCell id="pmSFgPjwjbdni7MCNhGs-6" value="+ WriteSavesToFile()" style="text;strokeColor=none;fillColor=none;align=left;verticalAlign=top;spacingLeft=4;spacingRight=4;overflow=hidden;rotatable=0;points=[[0,0.5],[1,0.5]];portConstraint=eastwest;whiteSpace=wrap;html=1;" vertex="1" parent="TfWbrsgbRibgP_C1F9pa-24">
          <mxGeometry y="190" width="450" height="26" as="geometry" />
        </mxCell>
        <mxCell id="pmSFgPjwjbdni7MCNhGs-7" value="+ LoadSavesFromFile()" style="text;strokeColor=none;fillColor=none;align=left;verticalAlign=top;spacingLeft=4;spacingRight=4;overflow=hidden;rotatable=0;points=[[0,0.5],[1,0.5]];portConstraint=eastwest;whiteSpace=wrap;html=1;" vertex="1" parent="TfWbrsgbRibgP_C1F9pa-24">
          <mxGeometry y="216" width="450" height="26" as="geometry" />
        </mxCell>
        <mxCell id="pmSFgPjwjbdni7MCNhGs-8" value="- CreateSaveInstance(string[] saveData):string" style="text;strokeColor=none;fillColor=none;align=left;verticalAlign=top;spacingLeft=4;spacingRight=4;overflow=hidden;rotatable=0;points=[[0,0.5],[1,0.5]];portConstraint=eastwest;whiteSpace=wrap;html=1;" vertex="1" parent="TfWbrsgbRibgP_C1F9pa-24">
          <mxGeometry y="242" width="450" height="26" as="geometry" />
        </mxCell>
        <mxCell id="pmSFgPjwjbdni7MCNhGs-9" value="- GetCompleteRootPathSaves():string" style="text;strokeColor=none;fillColor=none;align=left;verticalAlign=top;spacingLeft=4;spacingRight=4;overflow=hidden;rotatable=0;points=[[0,0.5],[1,0.5]];portConstraint=eastwest;whiteSpace=wrap;html=1;" vertex="1" parent="TfWbrsgbRibgP_C1F9pa-24">
          <mxGeometry y="268" width="450" height="26" as="geometry" />
        </mxCell>
        <mxCell id="pmSFgPjwjbdni7MCNhGs-11" value="+ GetListSaves():ObservableCollection&amp;lt;Save&amp;gt;" style="text;strokeColor=none;fillColor=none;align=left;verticalAlign=top;spacingLeft=4;spacingRight=4;overflow=hidden;rotatable=0;points=[[0,0.5],[1,0.5]];portConstraint=eastwest;whiteSpace=wrap;html=1;" vertex="1" parent="TfWbrsgbRibgP_C1F9pa-24">
          <mxGeometry y="294" width="450" height="26" as="geometry" />
        </mxCell>
        <mxCell id="pmSFgPjwjbdni7MCNhGs-13" value="+ updateResourceLang(string language)" style="text;strokeColor=none;fillColor=none;align=left;verticalAlign=top;spacingLeft=4;spacingRight=4;overflow=hidden;rotatable=0;points=[[0,0.5],[1,0.5]];portConstraint=eastwest;whiteSpace=wrap;html=1;" vertex="1" parent="TfWbrsgbRibgP_C1F9pa-24">
          <mxGeometry y="320" width="450" height="26" as="geometry" />
        </mxCell>
        <mxCell id="pmSFgPjwjbdni7MCNhGs-12" value="+ UpdateExtensionLog(int i)" style="text;strokeColor=none;fillColor=none;align=left;verticalAlign=top;spacingLeft=4;spacingRight=4;overflow=hidden;rotatable=0;points=[[0,0.5],[1,0.5]];portConstraint=eastwest;whiteSpace=wrap;html=1;" vertex="1" parent="TfWbrsgbRibgP_C1F9pa-24">
          <mxGeometry y="346" width="450" height="26" as="geometry" />
        </mxCell>
        <mxCell id="TfWbrsgbRibgP_C1F9pa-28" value="Folder" style="swimlane;fontStyle=1;align=center;verticalAlign=top;childLayout=stackLayout;horizontal=1;startSize=26;horizontalStack=0;resizeParent=1;resizeParentMax=0;resizeLast=0;collapsible=1;marginBottom=0;whiteSpace=wrap;html=1;" parent="1" vertex="1">
          <mxGeometry x="440" y="490" width="180" height="124" as="geometry" />
        </mxCell>
        <mxCell id="TfWbrsgbRibgP_C1F9pa-29" value="+ name : string" style="text;strokeColor=none;fillColor=none;align=left;verticalAlign=top;spacingLeft=4;spacingRight=4;overflow=hidden;rotatable=0;points=[[0,0.5],[1,0.5]];portConstraint=eastwest;whiteSpace=wrap;html=1;" parent="TfWbrsgbRibgP_C1F9pa-28" vertex="1">
          <mxGeometry y="26" width="180" height="26" as="geometry" />
        </mxCell>
        <mxCell id="TfWbrsgbRibgP_C1F9pa-30" value="" style="line;strokeWidth=1;fillColor=none;align=left;verticalAlign=middle;spacingTop=-1;spacingLeft=3;spacingRight=3;rotatable=0;labelPosition=right;points=[];portConstraint=eastwest;strokeColor=inherit;" parent="TfWbrsgbRibgP_C1F9pa-28" vertex="1">
          <mxGeometry y="52" width="180" height="8" as="geometry" />
        </mxCell>
        <mxCell id="TfWbrsgbRibgP_C1F9pa-31" value="" style="endArrow=none;html=1;rounded=0;exitX=1.012;exitY=0.128;exitDx=0;exitDy=0;entryX=1;entryY=0.5;entryDx=0;entryDy=0;startArrow=open;startFill=0;exitPerimeter=0;" parent="TfWbrsgbRibgP_C1F9pa-28" source="TfWbrsgbRibgP_C1F9pa-28" target="TfWbrsgbRibgP_C1F9pa-29" edge="1">
          <mxGeometry width="50" height="50" relative="1" as="geometry">
            <mxPoint x="210" y="6" as="sourcePoint" />
            <mxPoint x="180" y="46" as="targetPoint" />
            <Array as="points">
              <mxPoint x="210" y="15" />
              <mxPoint x="210" y="39" />
              <mxPoint x="190" y="39" />
            </Array>
          </mxGeometry>
        </mxCell>
        <mxCell id="TfWbrsgbRibgP_C1F9pa-32" value="+GetTotalFileSize&lt;span style=&quot;background-color: initial;&quot;&gt;(string):long&lt;/span&gt;" style="text;strokeColor=none;fillColor=none;align=left;verticalAlign=top;spacingLeft=4;spacingRight=4;overflow=hidden;rotatable=0;points=[[0,0.5],[1,0.5]];portConstraint=eastwest;whiteSpace=wrap;html=1;" parent="TfWbrsgbRibgP_C1F9pa-28" vertex="1">
          <mxGeometry y="60" width="180" height="32" as="geometry" />
        </mxCell>
        <mxCell id="TfWbrsgbRibgP_C1F9pa-33" value="+GetTotalFileCount&lt;span style=&quot;background-color: initial;&quot;&gt;(string):int&lt;/span&gt;" style="text;strokeColor=none;fillColor=none;align=left;verticalAlign=top;spacingLeft=4;spacingRight=4;overflow=hidden;rotatable=0;points=[[0,0.5],[1,0.5]];portConstraint=eastwest;whiteSpace=wrap;html=1;" parent="TfWbrsgbRibgP_C1F9pa-28" vertex="1">
          <mxGeometry y="92" width="180" height="32" as="geometry" />
        </mxCell>
        <mxCell id="TfWbrsgbRibgP_C1F9pa-36" value="ManageSaves" style="swimlane;fontStyle=1;align=center;verticalAlign=top;childLayout=stackLayout;horizontal=1;startSize=26;horizontalStack=0;resizeParent=1;resizeParentMax=0;resizeLast=0;collapsible=1;marginBottom=0;whiteSpace=wrap;html=1;" parent="1" vertex="1">
          <mxGeometry x="400" y="-190" width="410" height="260" as="geometry" />
        </mxCell>
        <mxCell id="TfWbrsgbRibgP_C1F9pa-37" value="&lt;br&gt;- logExtension : int&lt;div&gt;&lt;br&gt;&lt;/div&gt;" style="text;strokeColor=none;fillColor=none;align=left;verticalAlign=top;spacingLeft=4;spacingRight=4;overflow=hidden;rotatable=0;points=[[0,0.5],[1,0.5]];portConstraint=eastwest;whiteSpace=wrap;html=1;" parent="TfWbrsgbRibgP_C1F9pa-36" vertex="1">
          <mxGeometry y="26" width="410" height="44" as="geometry" />
        </mxCell>
        <mxCell id="TfWbrsgbRibgP_C1F9pa-38" value="" style="line;strokeWidth=1;fillColor=none;align=left;verticalAlign=middle;spacingTop=-1;spacingLeft=3;spacingRight=3;rotatable=0;labelPosition=right;points=[];portConstraint=eastwest;strokeColor=inherit;" parent="TfWbrsgbRibgP_C1F9pa-36" vertex="1">
          <mxGeometry y="70" width="410" height="8" as="geometry" />
        </mxCell>
        <mxCell id="TfWbrsgbRibgP_C1F9pa-39" value="+ addSave(Save)" style="text;strokeColor=none;fillColor=none;align=left;verticalAlign=top;spacingLeft=4;spacingRight=4;overflow=hidden;rotatable=0;points=[[0,0.5],[1,0.5]];portConstraint=eastwest;whiteSpace=wrap;html=1;" parent="TfWbrsgbRibgP_C1F9pa-36" vertex="1">
          <mxGeometry y="78" width="410" height="26" as="geometry" />
        </mxCell>
        <mxCell id="XKmW-i_A9sKNzWrIgCob-1" value="+ deleteSave(int number)" style="text;strokeColor=none;fillColor=none;align=left;verticalAlign=top;spacingLeft=4;spacingRight=4;overflow=hidden;rotatable=0;points=[[0,0.5],[1,0.5]];portConstraint=eastwest;whiteSpace=wrap;html=1;" parent="TfWbrsgbRibgP_C1F9pa-36" vertex="1">
          <mxGeometry y="104" width="410" height="26" as="geometry" />
        </mxCell>
        <mxCell id="TfWbrsgbRibgP_C1F9pa-40" value="+ RunSaves(run: int)" style="text;strokeColor=none;fillColor=none;align=left;verticalAlign=top;spacingLeft=4;spacingRight=4;overflow=hidden;rotatable=0;points=[[0,0.5],[1,0.5]];portConstraint=eastwest;whiteSpace=wrap;html=1;" parent="TfWbrsgbRibgP_C1F9pa-36" vertex="1">
          <mxGeometry y="130" width="410" height="26" as="geometry" />
        </mxCell>
        <mxCell id="40IbmHt8th1dj7Pp88jX-3" value="- RunLogs()" style="text;strokeColor=none;fillColor=none;align=left;verticalAlign=top;spacingLeft=4;spacingRight=4;overflow=hidden;rotatable=0;points=[[0,0.5],[1,0.5]];portConstraint=eastwest;whiteSpace=wrap;html=1;" parent="TfWbrsgbRibgP_C1F9pa-36" vertex="1">
          <mxGeometry y="156" width="410" height="26" as="geometry" />
        </mxCell>
        <mxCell id="TfWbrsgbRibgP_C1F9pa-41" value="- IncrementNumberMaxSave():int" style="text;strokeColor=none;fillColor=none;align=left;verticalAlign=top;spacingLeft=4;spacingRight=4;overflow=hidden;rotatable=0;points=[[0,0.5],[1,0.5]];portConstraint=eastwest;whiteSpace=wrap;html=1;" parent="TfWbrsgbRibgP_C1F9pa-36" vertex="1">
          <mxGeometry y="182" width="410" height="26" as="geometry" />
        </mxCell>
        <mxCell id="TfWbrsgbRibgP_C1F9pa-42" value="- GetNumbersToExecute(numbers: string):List&amp;lt;int&amp;gt;" style="text;strokeColor=none;fillColor=none;align=left;verticalAlign=top;spacingLeft=4;spacingRight=4;overflow=hidden;rotatable=0;points=[[0,0.5],[1,0.5]];portConstraint=eastwest;whiteSpace=wrap;html=1;" parent="TfWbrsgbRibgP_C1F9pa-36" vertex="1">
          <mxGeometry y="208" width="410" height="26" as="geometry" />
        </mxCell>
        <mxCell id="pmSFgPjwjbdni7MCNhGs-1" value="-&amp;nbsp;IsSpecSoftwareRunning(string process):bool" style="text;strokeColor=none;fillColor=none;align=left;verticalAlign=top;spacingLeft=4;spacingRight=4;overflow=hidden;rotatable=0;points=[[0,0.5],[1,0.5]];portConstraint=eastwest;whiteSpace=wrap;html=1;" vertex="1" parent="TfWbrsgbRibgP_C1F9pa-36">
          <mxGeometry y="234" width="410" height="26" as="geometry" />
        </mxCell>
        <mxCell id="TfWbrsgbRibgP_C1F9pa-43" value="" style="endArrow=open;html=1;rounded=0;endFill=0;" parent="1" source="TfWbrsgbRibgP_C1F9pa-36" target="TfWbrsgbRibgP_C1F9pa-1" edge="1">
          <mxGeometry width="50" height="50" relative="1" as="geometry">
            <mxPoint x="750" y="288" as="sourcePoint" />
            <mxPoint x="580" y="240" as="targetPoint" />
          </mxGeometry>
        </mxCell>
        <mxCell id="TfWbrsgbRibgP_C1F9pa-44" value="DailyLog" style="swimlane;fontStyle=1;align=center;verticalAlign=top;childLayout=stackLayout;horizontal=1;startSize=26;horizontalStack=0;resizeParent=1;resizeParentMax=0;resizeLast=0;collapsible=1;marginBottom=0;whiteSpace=wrap;html=1;" parent="1" vertex="1">
          <mxGeometry x="-350" y="-240" width="210" height="174" as="geometry" />
        </mxCell>
        <mxCell id="TfWbrsgbRibgP_C1F9pa-45" value="- timeStamp : DataTime&lt;br&gt;- name : String&lt;br&gt;- sourcePath : String&lt;br style=&quot;border-color: var(--border-color);&quot;&gt;- destPath : String&lt;br&gt;- fileSize : long&lt;br&gt;- transfereTime : double&lt;br&gt;-&amp;nbsp;EncryptionTime : int" style="text;strokeColor=none;fillColor=none;align=left;verticalAlign=top;spacingLeft=4;spacingRight=4;overflow=hidden;rotatable=0;points=[[0,0.5],[1,0.5]];portConstraint=eastwest;whiteSpace=wrap;html=1;" parent="TfWbrsgbRibgP_C1F9pa-44" vertex="1">
          <mxGeometry y="26" width="210" height="114" as="geometry" />
        </mxCell>
        <mxCell id="TfWbrsgbRibgP_C1F9pa-46" value="" style="line;strokeWidth=1;fillColor=none;align=left;verticalAlign=middle;spacingTop=-1;spacingLeft=3;spacingRight=3;rotatable=0;labelPosition=right;points=[];portConstraint=eastwest;strokeColor=inherit;" parent="TfWbrsgbRibgP_C1F9pa-44" vertex="1">
          <mxGeometry y="140" width="210" height="8" as="geometry" />
        </mxCell>
        <mxCell id="TfWbrsgbRibgP_C1F9pa-47" value="+ DailyLog(Save&lt;span&gt;)&lt;/span&gt;" style="text;strokeColor=none;fillColor=none;align=left;verticalAlign=top;spacingLeft=4;spacingRight=4;overflow=hidden;rotatable=0;points=[[0,0.5],[1,0.5]];portConstraint=eastwest;whiteSpace=wrap;html=1;fontStyle=0" parent="TfWbrsgbRibgP_C1F9pa-44" vertex="1">
          <mxGeometry y="148" width="210" height="26" as="geometry" />
        </mxCell>
        <mxCell id="TfWbrsgbRibgP_C1F9pa-48" value="" style="endArrow=none;html=1;rounded=0;startArrow=open;startFill=0;" parent="1" source="TfWbrsgbRibgP_C1F9pa-28" target="TfWbrsgbRibgP_C1F9pa-1" edge="1">
          <mxGeometry width="50" height="50" relative="1" as="geometry">
            <mxPoint x="597" y="446" as="sourcePoint" />
            <mxPoint x="420" y="218" as="targetPoint" />
          </mxGeometry>
        </mxCell>
        <mxCell id="TfWbrsgbRibgP_C1F9pa-49" value="0..*" style="text;html=1;strokeColor=none;fillColor=none;align=center;verticalAlign=middle;whiteSpace=wrap;rounded=0;fontStyle=1;fontSize=14;" parent="1" vertex="1">
          <mxGeometry x="645" y="480" width="20" height="30" as="geometry" />
        </mxCell>
        <mxCell id="TfWbrsgbRibgP_C1F9pa-50" value="0..*" style="text;html=1;strokeColor=none;fillColor=none;align=center;verticalAlign=middle;whiteSpace=wrap;rounded=0;fontStyle=1;fontSize=14;" parent="1" vertex="1">
          <mxGeometry x="-135" y="-160" width="30" height="30" as="geometry" />
        </mxCell>
        <mxCell id="TfWbrsgbRibgP_C1F9pa-51" value="0..*" style="text;html=1;strokeColor=none;fillColor=none;align=center;verticalAlign=middle;whiteSpace=wrap;rounded=0;fontStyle=1;fontSize=14;" parent="1" vertex="1">
          <mxGeometry x="640" y="81" width="20" height="30" as="geometry" />
        </mxCell>
        <mxCell id="TfWbrsgbRibgP_C1F9pa-53" value="" style="endArrow=open;html=1;rounded=0;endFill=0;" parent="1" source="TfWbrsgbRibgP_C1F9pa-24" target="TfWbrsgbRibgP_C1F9pa-36" edge="1">
          <mxGeometry width="50" height="50" relative="1" as="geometry">
            <mxPoint x="343" y="-106" as="sourcePoint" />
            <mxPoint x="240" y="-80" as="targetPoint" />
          </mxGeometry>
        </mxCell>
        <mxCell id="TfWbrsgbRibgP_C1F9pa-54" value="" style="endArrow=block;html=1;rounded=0;endFill=0;" parent="1" source="TfWbrsgbRibgP_C1F9pa-11" target="TfWbrsgbRibgP_C1F9pa-1" edge="1">
          <mxGeometry width="50" height="50" relative="1" as="geometry">
            <mxPoint x="540" y="230" as="sourcePoint" />
            <mxPoint x="590" y="180" as="targetPoint" />
          </mxGeometry>
        </mxCell>
        <mxCell id="TfWbrsgbRibgP_C1F9pa-55" value="" style="endArrow=block;html=1;rounded=0;endFill=0;" parent="1" source="TfWbrsgbRibgP_C1F9pa-15" target="TfWbrsgbRibgP_C1F9pa-1" edge="1">
          <mxGeometry width="50" height="50" relative="1" as="geometry">
            <mxPoint x="650" y="197" as="sourcePoint" />
            <mxPoint x="570" y="213" as="targetPoint" />
          </mxGeometry>
        </mxCell>
        <mxCell id="TfWbrsgbRibgP_C1F9pa-56" value="1" style="text;html=1;strokeColor=none;fillColor=none;align=center;verticalAlign=middle;whiteSpace=wrap;rounded=0;fontStyle=1;fontSize=14;" parent="1" vertex="1">
          <mxGeometry x="540" y="-214" width="30" height="30" as="geometry" />
        </mxCell>
        <mxCell id="TfWbrsgbRibgP_C1F9pa-62" value="" style="endArrow=open;html=1;rounded=0;endFill=0;" parent="1" source="l1EWzvNsCDI1lsqGRVuM-1" edge="1" target="TfWbrsgbRibgP_C1F9pa-24">
          <mxGeometry width="50" height="50" relative="1" as="geometry">
            <mxPoint x="330" y="-85" as="sourcePoint" />
            <mxPoint x="750" y="-238.91044776119406" as="targetPoint" />
          </mxGeometry>
        </mxCell>
        <mxCell id="TfWbrsgbRibgP_C1F9pa-63" value="1" style="text;html=1;strokeColor=none;fillColor=none;align=center;verticalAlign=middle;whiteSpace=wrap;rounded=0;fontStyle=1;fontSize=14;" parent="1" vertex="1">
          <mxGeometry x="720" y="-400" width="30" height="30" as="geometry" />
        </mxCell>
        <mxCell id="TfWbrsgbRibgP_C1F9pa-66" value="1" style="text;html=1;strokeColor=none;fillColor=none;align=center;verticalAlign=middle;whiteSpace=wrap;rounded=0;fontStyle=1;fontSize=14;" parent="1" vertex="1">
          <mxGeometry x="560" y="460" width="20" height="30" as="geometry" />
        </mxCell>
        <mxCell id="TfWbrsgbRibgP_C1F9pa-67" value="FileDailyLogs" style="swimlane;fontStyle=1;align=center;verticalAlign=top;childLayout=stackLayout;horizontal=1;startSize=26;horizontalStack=0;resizeParent=1;resizeParentMax=0;resizeLast=0;collapsible=1;marginBottom=0;whiteSpace=wrap;html=1;" parent="1" vertex="1">
          <mxGeometry x="45" y="-180" width="210" height="34" as="geometry" />
        </mxCell>
        <mxCell id="TfWbrsgbRibgP_C1F9pa-68" value="" style="line;strokeWidth=1;fillColor=none;align=left;verticalAlign=middle;spacingTop=-1;spacingLeft=3;spacingRight=3;rotatable=0;labelPosition=right;points=[];portConstraint=eastwest;strokeColor=inherit;" parent="TfWbrsgbRibgP_C1F9pa-67" vertex="1">
          <mxGeometry y="26" width="210" height="8" as="geometry" />
        </mxCell>
        <mxCell id="TfWbrsgbRibgP_C1F9pa-69" value="" style="endArrow=open;html=1;rounded=0;endFill=0;" parent="1" source="TfWbrsgbRibgP_C1F9pa-67" target="TfWbrsgbRibgP_C1F9pa-44" edge="1">
          <mxGeometry width="50" height="50" relative="1" as="geometry">
            <mxPoint x="260" y="283" as="sourcePoint" />
            <mxPoint x="415" y="236" as="targetPoint" />
          </mxGeometry>
        </mxCell>
        <mxCell id="TfWbrsgbRibgP_C1F9pa-70" value="" style="endArrow=open;html=1;rounded=0;endFill=0;" parent="1" source="TfWbrsgbRibgP_C1F9pa-36" target="TfWbrsgbRibgP_C1F9pa-67" edge="1">
          <mxGeometry width="50" height="50" relative="1" as="geometry">
            <mxPoint x="527" y="-74" as="sourcePoint" />
            <mxPoint x="503" y="-18" as="targetPoint" />
          </mxGeometry>
        </mxCell>
        <mxCell id="TfWbrsgbRibgP_C1F9pa-71" value="1" style="text;html=1;strokeColor=none;fillColor=none;align=center;verticalAlign=middle;whiteSpace=wrap;rounded=0;fontStyle=1;fontSize=14;" parent="1" vertex="1">
          <mxGeometry x="180" y="-152" width="30" height="30" as="geometry" />
        </mxCell>
        <mxCell id="TfWbrsgbRibgP_C1F9pa-72" value="FileRTLogs" style="swimlane;fontStyle=1;align=center;verticalAlign=top;childLayout=stackLayout;horizontal=1;startSize=26;horizontalStack=0;resizeParent=1;resizeParentMax=0;resizeLast=0;collapsible=1;marginBottom=0;whiteSpace=wrap;html=1;" parent="1" vertex="1">
          <mxGeometry x="45" y="150" width="210" height="34" as="geometry" />
        </mxCell>
        <mxCell id="TfWbrsgbRibgP_C1F9pa-73" value="" style="line;strokeWidth=1;fillColor=none;align=left;verticalAlign=middle;spacingTop=-1;spacingLeft=3;spacingRight=3;rotatable=0;labelPosition=right;points=[];portConstraint=eastwest;strokeColor=inherit;" parent="TfWbrsgbRibgP_C1F9pa-72" vertex="1">
          <mxGeometry y="26" width="210" height="8" as="geometry" />
        </mxCell>
        <mxCell id="TfWbrsgbRibgP_C1F9pa-74" value="RealTimeLog" style="swimlane;fontStyle=1;align=center;verticalAlign=top;childLayout=stackLayout;horizontal=1;startSize=26;horizontalStack=0;resizeParent=1;resizeParentMax=0;resizeLast=0;collapsible=1;marginBottom=0;whiteSpace=wrap;html=1;" parent="1" vertex="1">
          <mxGeometry x="-350" y="81" width="210" height="174" as="geometry" />
        </mxCell>
        <mxCell id="TfWbrsgbRibgP_C1F9pa-75" value="- name : String&lt;br&gt;- saveState : String&lt;br style=&quot;border-color: var(--border-color);&quot;&gt;- totalFile : int&lt;br&gt;- totalSize : long&lt;br&gt;- progress : double&lt;br&gt;- filesLeft : int&lt;br&gt;- sizeLeft : long" style="text;strokeColor=none;fillColor=none;align=left;verticalAlign=top;spacingLeft=4;spacingRight=4;overflow=hidden;rotatable=0;points=[[0,0.5],[1,0.5]];portConstraint=eastwest;whiteSpace=wrap;html=1;" parent="TfWbrsgbRibgP_C1F9pa-74" vertex="1">
          <mxGeometry y="26" width="210" height="114" as="geometry" />
        </mxCell>
        <mxCell id="TfWbrsgbRibgP_C1F9pa-76" value="" style="line;strokeWidth=1;fillColor=none;align=left;verticalAlign=middle;spacingTop=-1;spacingLeft=3;spacingRight=3;rotatable=0;labelPosition=right;points=[];portConstraint=eastwest;strokeColor=inherit;" parent="TfWbrsgbRibgP_C1F9pa-74" vertex="1">
          <mxGeometry y="140" width="210" height="8" as="geometry" />
        </mxCell>
        <mxCell id="TfWbrsgbRibgP_C1F9pa-77" value="+ RealTimeLog(Save&lt;span&gt;)&lt;/span&gt;" style="text;strokeColor=none;fillColor=none;align=left;verticalAlign=top;spacingLeft=4;spacingRight=4;overflow=hidden;rotatable=0;points=[[0,0.5],[1,0.5]];portConstraint=eastwest;whiteSpace=wrap;html=1;fontStyle=0" parent="TfWbrsgbRibgP_C1F9pa-74" vertex="1">
          <mxGeometry y="148" width="210" height="26" as="geometry" />
        </mxCell>
        <mxCell id="TfWbrsgbRibgP_C1F9pa-78" value="" style="edgeStyle=orthogonalEdgeStyle;rounded=0;orthogonalLoop=1;jettySize=auto;html=1;endArrow=none;endFill=0;startArrow=block;startFill=0;" parent="1" source="TfWbrsgbRibgP_C1F9pa-79" target="TfWbrsgbRibgP_C1F9pa-72" edge="1">
          <mxGeometry relative="1" as="geometry" />
        </mxCell>
        <mxCell id="TfWbrsgbRibgP_C1F9pa-79" value="&amp;lt;&amp;lt;Interface&amp;gt;&amp;gt;&lt;br&gt;FileLogs" style="swimlane;fontStyle=1;align=center;verticalAlign=top;childLayout=stackLayout;horizontal=1;startSize=36;horizontalStack=0;resizeParent=1;resizeParentMax=0;resizeLast=0;collapsible=1;marginBottom=0;whiteSpace=wrap;html=1;" parent="1" vertex="1">
          <mxGeometry x="40" y="-67" width="220" height="148" as="geometry" />
        </mxCell>
        <mxCell id="TfWbrsgbRibgP_C1F9pa-80" value="" style="line;strokeWidth=1;fillColor=none;align=left;verticalAlign=middle;spacingTop=-1;spacingLeft=3;spacingRight=3;rotatable=0;labelPosition=right;points=[];portConstraint=eastwest;strokeColor=inherit;" parent="TfWbrsgbRibgP_C1F9pa-79" vertex="1">
          <mxGeometry y="36" width="220" height="8" as="geometry" />
        </mxCell>
        <mxCell id="TfWbrsgbRibgP_C1F9pa-81" value="&lt;i&gt;+ GetFileName():string&lt;/i&gt;" style="text;strokeColor=none;fillColor=none;align=left;verticalAlign=top;spacingLeft=4;spacingRight=4;overflow=hidden;rotatable=0;points=[[0,0.5],[1,0.5]];portConstraint=eastwest;whiteSpace=wrap;html=1;" parent="TfWbrsgbRibgP_C1F9pa-79" vertex="1">
          <mxGeometry y="44" width="220" height="26" as="geometry" />
        </mxCell>
        <mxCell id="TfWbrsgbRibgP_C1F9pa-82" value="&lt;i&gt;+ AddLog(Log)&lt;/i&gt;" style="text;strokeColor=none;fillColor=none;align=left;verticalAlign=top;spacingLeft=4;spacingRight=4;overflow=hidden;rotatable=0;points=[[0,0.5],[1,0.5]];portConstraint=eastwest;whiteSpace=wrap;html=1;" parent="TfWbrsgbRibgP_C1F9pa-79" vertex="1">
          <mxGeometry y="70" width="220" height="26" as="geometry" />
        </mxCell>
        <mxCell id="TfWbrsgbRibgP_C1F9pa-83" value="&lt;i&gt;+ EmptyLogs()&lt;/i&gt;" style="text;strokeColor=none;fillColor=none;align=left;verticalAlign=top;spacingLeft=4;spacingRight=4;overflow=hidden;rotatable=0;points=[[0,0.5],[1,0.5]];portConstraint=eastwest;whiteSpace=wrap;html=1;" parent="TfWbrsgbRibgP_C1F9pa-79" vertex="1">
          <mxGeometry y="96" width="220" height="26" as="geometry" />
        </mxCell>
        <mxCell id="TfWbrsgbRibgP_C1F9pa-84" value="&lt;i&gt;+ IsEmpty():bool&lt;/i&gt;" style="text;strokeColor=none;fillColor=none;align=left;verticalAlign=top;spacingLeft=4;spacingRight=4;overflow=hidden;rotatable=0;points=[[0,0.5],[1,0.5]];portConstraint=eastwest;whiteSpace=wrap;html=1;" parent="TfWbrsgbRibgP_C1F9pa-79" vertex="1">
          <mxGeometry y="122" width="220" height="26" as="geometry" />
        </mxCell>
        <mxCell id="TfWbrsgbRibgP_C1F9pa-85" value="" style="edgeStyle=orthogonalEdgeStyle;rounded=0;orthogonalLoop=1;jettySize=auto;html=1;endArrow=none;endFill=0;startArrow=block;startFill=0;" parent="1" source="TfWbrsgbRibgP_C1F9pa-79" target="TfWbrsgbRibgP_C1F9pa-67" edge="1">
          <mxGeometry relative="1" as="geometry">
            <mxPoint x="50" y="62" as="sourcePoint" />
            <mxPoint x="-75" y="140" as="targetPoint" />
          </mxGeometry>
        </mxCell>
        <mxCell id="TfWbrsgbRibgP_C1F9pa-86" value="" style="endArrow=open;html=1;rounded=0;endFill=0;" parent="1" source="TfWbrsgbRibgP_C1F9pa-72" target="TfWbrsgbRibgP_C1F9pa-74" edge="1">
          <mxGeometry width="50" height="50" relative="1" as="geometry">
            <mxPoint x="195" y="226" as="sourcePoint" />
            <mxPoint x="195" y="262" as="targetPoint" />
          </mxGeometry>
        </mxCell>
        <mxCell id="TfWbrsgbRibgP_C1F9pa-87" value="0..*" style="text;html=1;strokeColor=none;fillColor=none;align=center;verticalAlign=middle;whiteSpace=wrap;rounded=0;fontStyle=1;fontSize=14;" parent="1" vertex="1">
          <mxGeometry x="-135" y="170" width="30" height="30" as="geometry" />
        </mxCell>
        <mxCell id="TfWbrsgbRibgP_C1F9pa-88" value="XMLLogs" style="swimlane;fontStyle=1;align=center;verticalAlign=top;childLayout=stackLayout;horizontal=1;startSize=26;horizontalStack=0;resizeParent=1;resizeParentMax=0;resizeLast=0;collapsible=1;marginBottom=0;whiteSpace=wrap;html=1;" parent="1" vertex="1">
          <mxGeometry y="-500" width="210" height="86" as="geometry" />
        </mxCell>
        <mxCell id="TfWbrsgbRibgP_C1F9pa-89" value="" style="line;strokeWidth=1;fillColor=none;align=left;verticalAlign=middle;spacingTop=-1;spacingLeft=3;spacingRight=3;rotatable=0;labelPosition=right;points=[];portConstraint=eastwest;strokeColor=inherit;" parent="TfWbrsgbRibgP_C1F9pa-88" vertex="1">
          <mxGeometry y="26" width="210" height="8" as="geometry" />
        </mxCell>
        <mxCell id="TfWbrsgbRibgP_C1F9pa-90" value="+ RunLogs(FileLogs&lt;span&gt;)&lt;/span&gt;" style="text;strokeColor=none;fillColor=none;align=left;verticalAlign=top;spacingLeft=4;spacingRight=4;overflow=hidden;rotatable=0;points=[[0,0.5],[1,0.5]];portConstraint=eastwest;whiteSpace=wrap;html=1;fontStyle=0" parent="TfWbrsgbRibgP_C1F9pa-88" vertex="1">
          <mxGeometry y="34" width="210" height="26" as="geometry" />
        </mxCell>
        <mxCell id="TfWbrsgbRibgP_C1F9pa-91" value="&lt;span&gt;+ GetExtensionFile():string&lt;/span&gt;" style="text;strokeColor=none;fillColor=none;align=left;verticalAlign=top;spacingLeft=4;spacingRight=4;overflow=hidden;rotatable=0;points=[[0,0.5],[1,0.5]];portConstraint=eastwest;whiteSpace=wrap;html=1;fontStyle=0" parent="TfWbrsgbRibgP_C1F9pa-88" vertex="1">
          <mxGeometry y="60" width="210" height="26" as="geometry" />
        </mxCell>
        <mxCell id="TfWbrsgbRibgP_C1F9pa-92" value="&amp;lt;&amp;lt;Abstract&amp;gt;&amp;gt;&lt;br&gt;TypeFileLogs" style="swimlane;fontStyle=1;align=center;verticalAlign=top;childLayout=stackLayout;horizontal=1;startSize=44;horizontalStack=0;resizeParent=1;resizeParentMax=0;resizeLast=0;collapsible=1;marginBottom=0;whiteSpace=wrap;html=1;" parent="1" vertex="1">
          <mxGeometry x="-130" y="-350" width="210" height="130" as="geometry" />
        </mxCell>
        <mxCell id="TfWbrsgbRibgP_C1F9pa-93" value="" style="line;strokeWidth=1;fillColor=none;align=left;verticalAlign=middle;spacingTop=-1;spacingLeft=3;spacingRight=3;rotatable=0;labelPosition=right;points=[];portConstraint=eastwest;strokeColor=inherit;" parent="TfWbrsgbRibgP_C1F9pa-92" vertex="1">
          <mxGeometry y="44" width="210" height="8" as="geometry" />
        </mxCell>
        <mxCell id="TfWbrsgbRibgP_C1F9pa-94" value="&lt;span&gt;+ GetLogFilePath(FileLogs):string&lt;/span&gt;" style="text;strokeColor=none;fillColor=none;align=left;verticalAlign=top;spacingLeft=4;spacingRight=4;overflow=hidden;rotatable=0;points=[[0,0.5],[1,0.5]];portConstraint=eastwest;whiteSpace=wrap;html=1;fontStyle=0" parent="TfWbrsgbRibgP_C1F9pa-92" vertex="1">
          <mxGeometry y="52" width="210" height="26" as="geometry" />
        </mxCell>
        <mxCell id="TfWbrsgbRibgP_C1F9pa-95" value="+ RunLogs(&lt;span style=&quot;&quot;&gt;FileLogs&lt;/span&gt;&lt;span&gt;)&lt;/span&gt;" style="text;strokeColor=none;fillColor=none;align=left;verticalAlign=top;spacingLeft=4;spacingRight=4;overflow=hidden;rotatable=0;points=[[0,0.5],[1,0.5]];portConstraint=eastwest;whiteSpace=wrap;html=1;fontStyle=2" parent="TfWbrsgbRibgP_C1F9pa-92" vertex="1">
          <mxGeometry y="78" width="210" height="26" as="geometry" />
        </mxCell>
        <mxCell id="TfWbrsgbRibgP_C1F9pa-96" value="&lt;span&gt;+ GetExtensionFile():string&lt;/span&gt;" style="text;strokeColor=none;fillColor=none;align=left;verticalAlign=top;spacingLeft=4;spacingRight=4;overflow=hidden;rotatable=0;points=[[0,0.5],[1,0.5]];portConstraint=eastwest;whiteSpace=wrap;html=1;fontStyle=2" parent="TfWbrsgbRibgP_C1F9pa-92" vertex="1">
          <mxGeometry y="104" width="210" height="26" as="geometry" />
        </mxCell>
        <mxCell id="TfWbrsgbRibgP_C1F9pa-97" value="JSONLogs" style="swimlane;fontStyle=1;align=center;verticalAlign=top;childLayout=stackLayout;horizontal=1;startSize=26;horizontalStack=0;resizeParent=1;resizeParentMax=0;resizeLast=0;collapsible=1;marginBottom=0;whiteSpace=wrap;html=1;" parent="1" vertex="1">
          <mxGeometry x="-250" y="-500" width="210" height="86" as="geometry" />
        </mxCell>
        <mxCell id="TfWbrsgbRibgP_C1F9pa-98" value="" style="line;strokeWidth=1;fillColor=none;align=left;verticalAlign=middle;spacingTop=-1;spacingLeft=3;spacingRight=3;rotatable=0;labelPosition=right;points=[];portConstraint=eastwest;strokeColor=inherit;" parent="TfWbrsgbRibgP_C1F9pa-97" vertex="1">
          <mxGeometry y="26" width="210" height="8" as="geometry" />
        </mxCell>
        <mxCell id="TfWbrsgbRibgP_C1F9pa-99" value="+ RunLogs(FileLogs&lt;span&gt;)&lt;/span&gt;" style="text;strokeColor=none;fillColor=none;align=left;verticalAlign=top;spacingLeft=4;spacingRight=4;overflow=hidden;rotatable=0;points=[[0,0.5],[1,0.5]];portConstraint=eastwest;whiteSpace=wrap;html=1;fontStyle=0" parent="TfWbrsgbRibgP_C1F9pa-97" vertex="1">
          <mxGeometry y="34" width="210" height="26" as="geometry" />
        </mxCell>
        <mxCell id="TfWbrsgbRibgP_C1F9pa-100" value="&lt;span&gt;+ GetExtensionFile():string&lt;/span&gt;" style="text;strokeColor=none;fillColor=none;align=left;verticalAlign=top;spacingLeft=4;spacingRight=4;overflow=hidden;rotatable=0;points=[[0,0.5],[1,0.5]];portConstraint=eastwest;whiteSpace=wrap;html=1;fontStyle=0" parent="TfWbrsgbRibgP_C1F9pa-97" vertex="1">
          <mxGeometry y="60" width="210" height="26" as="geometry" />
        </mxCell>
        <mxCell id="TfWbrsgbRibgP_C1F9pa-101" value="" style="edgeStyle=orthogonalEdgeStyle;rounded=0;orthogonalLoop=1;jettySize=auto;html=1;endArrow=none;endFill=0;startArrow=block;startFill=0;" parent="1" source="TfWbrsgbRibgP_C1F9pa-92" target="TfWbrsgbRibgP_C1F9pa-88" edge="1">
          <mxGeometry relative="1" as="geometry">
            <mxPoint x="379" y="-284" as="sourcePoint" />
            <mxPoint x="244" y="-179" as="targetPoint" />
          </mxGeometry>
        </mxCell>
        <mxCell id="TfWbrsgbRibgP_C1F9pa-102" value="" style="edgeStyle=orthogonalEdgeStyle;rounded=0;orthogonalLoop=1;jettySize=auto;html=1;endArrow=none;endFill=0;startArrow=block;startFill=0;" parent="1" source="TfWbrsgbRibgP_C1F9pa-92" target="TfWbrsgbRibgP_C1F9pa-97" edge="1">
          <mxGeometry relative="1" as="geometry">
            <mxPoint x="-136" y="-219" as="sourcePoint" />
            <mxPoint x="-266" y="-169" as="targetPoint" />
          </mxGeometry>
        </mxCell>
        <mxCell id="TfWbrsgbRibgP_C1F9pa-103" value="" style="endArrow=open;html=1;rounded=0;endFill=0;" parent="1" source="TfWbrsgbRibgP_C1F9pa-36" target="TfWbrsgbRibgP_C1F9pa-72" edge="1">
          <mxGeometry width="50" height="50" relative="1" as="geometry">
            <mxPoint x="450" y="30" as="sourcePoint" />
            <mxPoint x="250" y="140" as="targetPoint" />
          </mxGeometry>
        </mxCell>
        <mxCell id="TfWbrsgbRibgP_C1F9pa-104" value="1" style="text;html=1;strokeColor=none;fillColor=none;align=center;verticalAlign=middle;whiteSpace=wrap;rounded=0;fontStyle=1;fontSize=14;" parent="1" vertex="1">
          <mxGeometry x="210" y="120" width="30" height="30" as="geometry" />
        </mxCell>
        <mxCell id="TfWbrsgbRibgP_C1F9pa-105" value="" style="edgeStyle=orthogonalEdgeStyle;rounded=0;orthogonalLoop=1;jettySize=auto;html=1;endArrow=none;endFill=0;startArrow=block;startFill=0;" parent="1" source="TfWbrsgbRibgP_C1F9pa-106" target="TfWbrsgbRibgP_C1F9pa-74" edge="1">
          <mxGeometry relative="1" as="geometry">
            <mxPoint x="-510" y="-36" as="targetPoint" />
          </mxGeometry>
        </mxCell>
        <mxCell id="TfWbrsgbRibgP_C1F9pa-106" value="&amp;lt;&amp;lt;Interface&amp;gt;&amp;gt;&lt;br&gt;Log" style="swimlane;fontStyle=1;align=center;verticalAlign=top;childLayout=stackLayout;horizontal=1;startSize=36;horizontalStack=0;resizeParent=1;resizeParentMax=0;resizeLast=0;collapsible=1;marginBottom=0;whiteSpace=wrap;html=1;" parent="1" vertex="1">
          <mxGeometry x="-620" y="-15" width="220" height="44" as="geometry" />
        </mxCell>
        <mxCell id="TfWbrsgbRibgP_C1F9pa-107" value="" style="line;strokeWidth=1;fillColor=none;align=left;verticalAlign=middle;spacingTop=-1;spacingLeft=3;spacingRight=3;rotatable=0;labelPosition=right;points=[];portConstraint=eastwest;strokeColor=inherit;" parent="TfWbrsgbRibgP_C1F9pa-106" vertex="1">
          <mxGeometry y="36" width="220" height="8" as="geometry" />
        </mxCell>
        <mxCell id="TfWbrsgbRibgP_C1F9pa-108" value="" style="edgeStyle=orthogonalEdgeStyle;rounded=0;orthogonalLoop=1;jettySize=auto;html=1;endArrow=none;endFill=0;startArrow=block;startFill=0;" parent="1" source="TfWbrsgbRibgP_C1F9pa-106" target="TfWbrsgbRibgP_C1F9pa-44" edge="1">
          <mxGeometry relative="1" as="geometry">
            <mxPoint x="-370.57" y="189" as="sourcePoint" />
            <mxPoint x="-240" y="-172" as="targetPoint" />
          </mxGeometry>
        </mxCell>
        <mxCell id="TfWbrsgbRibgP_C1F9pa-109" value="" style="endArrow=diamondThin;html=1;rounded=0;endFill=1;" parent="1" source="TfWbrsgbRibgP_C1F9pa-92" target="TfWbrsgbRibgP_C1F9pa-79" edge="1">
          <mxGeometry width="50" height="50" relative="1" as="geometry">
            <mxPoint x="415" y="26" as="sourcePoint" />
            <mxPoint x="27" y="140" as="targetPoint" />
            <Array as="points">
              <mxPoint x="-25" y="7" />
            </Array>
          </mxGeometry>
        </mxCell>
        <mxCell id="l1EWzvNsCDI1lsqGRVuM-1" value="MainWindow" style="swimlane;fontStyle=1;align=center;verticalAlign=top;childLayout=stackLayout;horizontal=1;startSize=26;horizontalStack=0;resizeParent=1;resizeParentMax=0;resizeLast=0;collapsible=1;marginBottom=0;whiteSpace=wrap;html=1;" parent="1" vertex="1">
          <mxGeometry x="770" y="-315" width="350" height="60" as="geometry" />
        </mxCell>
        <mxCell id="l1EWzvNsCDI1lsqGRVuM-2" value="" style="line;strokeWidth=1;fillColor=none;align=left;verticalAlign=middle;spacingTop=-1;spacingLeft=3;spacingRight=3;rotatable=0;labelPosition=right;points=[];portConstraint=eastwest;strokeColor=inherit;" parent="l1EWzvNsCDI1lsqGRVuM-1" vertex="1">
          <mxGeometry y="26" width="350" height="8" as="geometry" />
        </mxCell>
        <mxCell id="l1EWzvNsCDI1lsqGRVuM-3" value="+ view(page)" style="text;strokeColor=none;fillColor=none;align=left;verticalAlign=top;spacingLeft=4;spacingRight=4;overflow=hidden;rotatable=0;points=[[0,0.5],[1,0.5]];portConstraint=eastwest;whiteSpace=wrap;html=1;" parent="l1EWzvNsCDI1lsqGRVuM-1" vertex="1">
          <mxGeometry y="34" width="350" height="26" as="geometry" />
        </mxCell>
        <mxCell id="l1EWzvNsCDI1lsqGRVuM-5" value="CreateSave" style="swimlane;fontStyle=1;align=center;verticalAlign=top;childLayout=stackLayout;horizontal=1;startSize=26;horizontalStack=0;resizeParent=1;resizeParentMax=0;resizeLast=0;collapsible=1;marginBottom=0;whiteSpace=wrap;html=1;" parent="1" vertex="1">
          <mxGeometry x="1230" y="-414" width="350" height="60" as="geometry" />
        </mxCell>
        <mxCell id="l1EWzvNsCDI1lsqGRVuM-7" value="- encryptList : List&amp;lt;String&amp;gt;&amp;nbsp;" style="text;strokeColor=none;fillColor=none;align=left;verticalAlign=top;spacingLeft=4;spacingRight=4;overflow=hidden;rotatable=0;points=[[0,0.5],[1,0.5]];portConstraint=eastwest;whiteSpace=wrap;html=1;" parent="l1EWzvNsCDI1lsqGRVuM-5" vertex="1">
          <mxGeometry y="26" width="350" height="26" as="geometry" />
        </mxCell>
        <mxCell id="l1EWzvNsCDI1lsqGRVuM-6" value="" style="line;strokeWidth=1;fillColor=none;align=left;verticalAlign=middle;spacingTop=-1;spacingLeft=3;spacingRight=3;rotatable=0;labelPosition=right;points=[];portConstraint=eastwest;strokeColor=inherit;" parent="l1EWzvNsCDI1lsqGRVuM-5" vertex="1">
          <mxGeometry y="52" width="350" height="8" as="geometry" />
        </mxCell>
        <mxCell id="l1EWzvNsCDI1lsqGRVuM-13" value="RunSave&lt;div&gt;&lt;br/&gt;&lt;/div&gt;" style="swimlane;fontStyle=1;align=center;verticalAlign=top;childLayout=stackLayout;horizontal=1;startSize=26;horizontalStack=0;resizeParent=1;resizeParentMax=0;resizeLast=0;collapsible=1;marginBottom=0;whiteSpace=wrap;html=1;" parent="1" vertex="1">
          <mxGeometry x="1230" y="-330" width="350" height="34" as="geometry" />
        </mxCell>
        <mxCell id="l1EWzvNsCDI1lsqGRVuM-15" value="" style="line;strokeWidth=1;fillColor=none;align=left;verticalAlign=middle;spacingTop=-1;spacingLeft=3;spacingRight=3;rotatable=0;labelPosition=right;points=[];portConstraint=eastwest;strokeColor=inherit;" parent="l1EWzvNsCDI1lsqGRVuM-13" vertex="1">
          <mxGeometry y="26" width="350" height="8" as="geometry" />
        </mxCell>
        <mxCell id="l1EWzvNsCDI1lsqGRVuM-19" value="ViewMainWindow&lt;div&gt;&lt;br/&gt;&lt;/div&gt;" style="swimlane;fontStyle=1;align=center;verticalAlign=top;childLayout=stackLayout;horizontal=1;startSize=26;horizontalStack=0;resizeParent=1;resizeParentMax=0;resizeLast=0;collapsible=1;marginBottom=0;whiteSpace=wrap;html=1;" parent="1" vertex="1">
          <mxGeometry x="1230" y="-262" width="350" height="34" as="geometry" />
        </mxCell>
        <mxCell id="l1EWzvNsCDI1lsqGRVuM-20" value="" style="line;strokeWidth=1;fillColor=none;align=left;verticalAlign=middle;spacingTop=-1;spacingLeft=3;spacingRight=3;rotatable=0;labelPosition=right;points=[];portConstraint=eastwest;strokeColor=inherit;" parent="l1EWzvNsCDI1lsqGRVuM-19" vertex="1">
          <mxGeometry y="26" width="350" height="8" as="geometry" />
        </mxCell>
        <mxCell id="l1EWzvNsCDI1lsqGRVuM-21" value="Settings&lt;div&gt;&lt;br/&gt;&lt;/div&gt;" style="swimlane;fontStyle=1;align=center;verticalAlign=top;childLayout=stackLayout;horizontal=1;startSize=26;horizontalStack=0;resizeParent=1;resizeParentMax=0;resizeLast=0;collapsible=1;marginBottom=0;whiteSpace=wrap;html=1;" parent="1" vertex="1">
          <mxGeometry x="1230" y="-184" width="350" height="34" as="geometry" />
        </mxCell>
        <mxCell id="l1EWzvNsCDI1lsqGRVuM-22" value="" style="line;strokeWidth=1;fillColor=none;align=left;verticalAlign=middle;spacingTop=-1;spacingLeft=3;spacingRight=3;rotatable=0;labelPosition=right;points=[];portConstraint=eastwest;strokeColor=inherit;" parent="l1EWzvNsCDI1lsqGRVuM-21" vertex="1">
          <mxGeometry y="26" width="350" height="8" as="geometry" />
        </mxCell>
        <mxCell id="l1EWzvNsCDI1lsqGRVuM-24" value="" style="endArrow=open;html=1;rounded=0;endFill=0;entryX=0;entryY=0.5;entryDx=0;entryDy=0;" parent="1" source="l1EWzvNsCDI1lsqGRVuM-1" target="l1EWzvNsCDI1lsqGRVuM-7" edge="1">
          <mxGeometry width="50" height="50" relative="1" as="geometry">
            <mxPoint x="1200" y="-360" as="sourcePoint" />
            <mxPoint x="1040" y="-100" as="targetPoint" />
          </mxGeometry>
        </mxCell>
        <mxCell id="l1EWzvNsCDI1lsqGRVuM-25" value="" style="endArrow=open;html=1;rounded=0;endFill=0;entryX=0;entryY=0.5;entryDx=0;entryDy=0;" parent="1" source="l1EWzvNsCDI1lsqGRVuM-1" target="l1EWzvNsCDI1lsqGRVuM-13" edge="1">
          <mxGeometry width="50" height="50" relative="1" as="geometry">
            <mxPoint x="1035" y="-260" as="sourcePoint" />
            <mxPoint x="1315" y="-344" as="targetPoint" />
            <Array as="points" />
          </mxGeometry>
        </mxCell>
        <mxCell id="l1EWzvNsCDI1lsqGRVuM-26" value="" style="endArrow=open;html=1;rounded=0;endFill=0;" parent="1" source="l1EWzvNsCDI1lsqGRVuM-1" target="l1EWzvNsCDI1lsqGRVuM-19" edge="1">
          <mxGeometry width="50" height="50" relative="1" as="geometry">
            <mxPoint x="1110" y="-256" as="sourcePoint" />
            <mxPoint x="1304" y="-286" as="targetPoint" />
            <Array as="points">
              <mxPoint x="1200" y="-250" />
            </Array>
          </mxGeometry>
        </mxCell>
        <mxCell id="l1EWzvNsCDI1lsqGRVuM-27" value="" style="endArrow=open;html=1;rounded=0;endFill=0;entryX=0;entryY=0.5;entryDx=0;entryDy=0;" parent="1" source="l1EWzvNsCDI1lsqGRVuM-1" target="l1EWzvNsCDI1lsqGRVuM-21" edge="1">
          <mxGeometry width="50" height="50" relative="1" as="geometry">
            <mxPoint x="1120" y="-246" as="sourcePoint" />
            <mxPoint x="1293" y="-184" as="targetPoint" />
            <Array as="points" />
          </mxGeometry>
        </mxCell>
        <mxCell id="l1EWzvNsCDI1lsqGRVuM-28" value="1" style="text;html=1;strokeColor=none;fillColor=none;align=center;verticalAlign=middle;whiteSpace=wrap;rounded=0;fontStyle=1;fontSize=14;" parent="1" vertex="1">
          <mxGeometry x="1200" y="-370" width="30" height="30" as="geometry" />
        </mxCell>
        <mxCell id="l1EWzvNsCDI1lsqGRVuM-29" value="1" style="text;html=1;strokeColor=none;fillColor=none;align=center;verticalAlign=middle;whiteSpace=wrap;rounded=0;fontStyle=1;fontSize=14;" parent="1" vertex="1">
          <mxGeometry x="1200" y="-310" width="30" height="30" as="geometry" />
        </mxCell>
        <mxCell id="l1EWzvNsCDI1lsqGRVuM-30" value="1" style="text;html=1;strokeColor=none;fillColor=none;align=center;verticalAlign=middle;whiteSpace=wrap;rounded=0;fontStyle=1;fontSize=14;" parent="1" vertex="1">
          <mxGeometry x="1200" y="-250" width="30" height="30" as="geometry" />
        </mxCell>
        <mxCell id="l1EWzvNsCDI1lsqGRVuM-31" value="1" style="text;html=1;strokeColor=none;fillColor=none;align=center;verticalAlign=middle;whiteSpace=wrap;rounded=0;fontStyle=1;fontSize=14;" parent="1" vertex="1">
          <mxGeometry x="1200" y="-170" width="30" height="30" as="geometry" />
        </mxCell>
      </root>
    </mxGraphModel>
  </diagram>
  <diagram id="njIwaO5LHjXfrrL0uOrm" name="V2.0 - Seq Run Save/Cryptosoft">
    <mxGraphModel dx="1290" dy="530" grid="1" gridSize="10" guides="1" tooltips="1" connect="1" arrows="1" fold="1" page="1" pageScale="1" pageWidth="827" pageHeight="1169" math="0" shadow="0">
      <root>
        <mxCell id="0" />
        <mxCell id="1" parent="0" />
        <mxCell id="Fiu_bVgfJRJ2x_Z5XWvr-1" value="App" style="shape=umlLifeline;perimeter=lifelinePerimeter;whiteSpace=wrap;html=1;container=0;dropTarget=0;collapsible=0;recursiveResize=0;outlineConnect=0;portConstraint=eastwest;newEdgeStyle={&quot;edgeStyle&quot;:&quot;elbowEdgeStyle&quot;,&quot;elbow&quot;:&quot;vertical&quot;,&quot;curved&quot;:0,&quot;rounded&quot;:0};" parent="1" vertex="1">
          <mxGeometry x="40" y="40" width="100" height="220" as="geometry" />
        </mxCell>
        <mxCell id="Fiu_bVgfJRJ2x_Z5XWvr-2" value="" style="html=1;points=[];perimeter=orthogonalPerimeter;outlineConnect=0;targetShapes=umlLifeline;portConstraint=eastwest;newEdgeStyle={&quot;edgeStyle&quot;:&quot;elbowEdgeStyle&quot;,&quot;elbow&quot;:&quot;vertical&quot;,&quot;curved&quot;:0,&quot;rounded&quot;:0};" parent="Fiu_bVgfJRJ2x_Z5XWvr-1" vertex="1">
          <mxGeometry x="45" y="56" width="10" height="114" as="geometry" />
        </mxCell>
        <mxCell id="Fiu_bVgfJRJ2x_Z5XWvr-3" value="ModelView" style="shape=umlLifeline;perimeter=lifelinePerimeter;whiteSpace=wrap;html=1;container=0;dropTarget=0;collapsible=0;recursiveResize=0;outlineConnect=0;portConstraint=eastwest;newEdgeStyle={&quot;edgeStyle&quot;:&quot;elbowEdgeStyle&quot;,&quot;elbow&quot;:&quot;vertical&quot;,&quot;curved&quot;:0,&quot;rounded&quot;:0};" parent="1" vertex="1">
          <mxGeometry x="220" y="40" width="100" height="220" as="geometry" />
        </mxCell>
        <mxCell id="Fiu_bVgfJRJ2x_Z5XWvr-4" value="" style="html=1;points=[];perimeter=orthogonalPerimeter;outlineConnect=0;targetShapes=umlLifeline;portConstraint=eastwest;newEdgeStyle={&quot;edgeStyle&quot;:&quot;elbowEdgeStyle&quot;,&quot;elbow&quot;:&quot;vertical&quot;,&quot;curved&quot;:0,&quot;rounded&quot;:0};" parent="Fiu_bVgfJRJ2x_Z5XWvr-3" vertex="1">
          <mxGeometry x="45" y="64" width="10" height="96" as="geometry" />
        </mxCell>
        <mxCell id="Fiu_bVgfJRJ2x_Z5XWvr-5" value="RunSave(numberUser)" style="html=1;verticalAlign=bottom;endArrow=block;edgeStyle=elbowEdgeStyle;elbow=horizontal;curved=0;rounded=0;" parent="1" source="Fiu_bVgfJRJ2x_Z5XWvr-2" target="Fiu_bVgfJRJ2x_Z5XWvr-4" edge="1">
          <mxGeometry relative="1" as="geometry">
            <mxPoint x="195" y="130" as="sourcePoint" />
            <Array as="points">
              <mxPoint x="180" y="120" />
            </Array>
            <mxPoint as="offset" />
          </mxGeometry>
        </mxCell>
        <mxCell id="Fiu_bVgfJRJ2x_Z5XWvr-6" value="" style="html=1;verticalAlign=bottom;endArrow=open;dashed=1;endSize=8;edgeStyle=elbowEdgeStyle;elbow=vertical;curved=0;rounded=0;" parent="1" edge="1">
          <mxGeometry relative="1" as="geometry">
            <mxPoint x="277" y="193" as="targetPoint" />
            <Array as="points">
              <mxPoint x="362" y="193" />
            </Array>
            <mxPoint x="437" y="193" as="sourcePoint" />
          </mxGeometry>
        </mxCell>
        <mxCell id="Fiu_bVgfJRJ2x_Z5XWvr-7" value="ManageSaves" style="shape=umlLifeline;perimeter=lifelinePerimeter;whiteSpace=wrap;html=1;container=0;dropTarget=0;collapsible=0;recursiveResize=0;outlineConnect=0;portConstraint=eastwest;newEdgeStyle={&quot;edgeStyle&quot;:&quot;elbowEdgeStyle&quot;,&quot;elbow&quot;:&quot;vertical&quot;,&quot;curved&quot;:0,&quot;rounded&quot;:0};" parent="1" vertex="1">
          <mxGeometry x="400" y="40" width="100" height="220" as="geometry" />
        </mxCell>
        <mxCell id="Fiu_bVgfJRJ2x_Z5XWvr-8" value="" style="html=1;points=[];perimeter=orthogonalPerimeter;outlineConnect=0;targetShapes=umlLifeline;portConstraint=eastwest;newEdgeStyle={&quot;edgeStyle&quot;:&quot;elbowEdgeStyle&quot;,&quot;elbow&quot;:&quot;vertical&quot;,&quot;curved&quot;:0,&quot;rounded&quot;:0};" parent="Fiu_bVgfJRJ2x_Z5XWvr-7" vertex="1">
          <mxGeometry x="45" y="67" width="10" height="88" as="geometry" />
        </mxCell>
        <mxCell id="Fiu_bVgfJRJ2x_Z5XWvr-9" value="RunSaves(numberUser)" style="html=1;verticalAlign=bottom;endArrow=block;edgeStyle=elbowEdgeStyle;elbow=vertical;curved=0;rounded=0;" parent="1" edge="1">
          <mxGeometry relative="1" as="geometry">
            <mxPoint x="280" y="126" as="sourcePoint" />
            <Array as="points">
              <mxPoint x="355" y="126" />
            </Array>
            <mxPoint x="440" y="126" as="targetPoint" />
          </mxGeometry>
        </mxCell>
        <mxCell id="Fiu_bVgfJRJ2x_Z5XWvr-10" value="" style="html=1;verticalAlign=bottom;endArrow=open;dashed=1;endSize=8;edgeStyle=elbowEdgeStyle;elbow=vertical;curved=0;rounded=0;" parent="1" edge="1">
          <mxGeometry relative="1" as="geometry">
            <mxPoint x="100" y="196" as="targetPoint" />
            <Array as="points">
              <mxPoint x="185" y="196" />
            </Array>
            <mxPoint x="260" y="196" as="sourcePoint" />
            <mxPoint as="offset" />
          </mxGeometry>
        </mxCell>
        <mxCell id="Fiu_bVgfJRJ2x_Z5XWvr-11" value="&lt;div&gt;Save&lt;/div&gt;" style="shape=umlLifeline;perimeter=lifelinePerimeter;whiteSpace=wrap;html=1;container=0;dropTarget=0;collapsible=0;recursiveResize=0;outlineConnect=0;portConstraint=eastwest;newEdgeStyle={&quot;edgeStyle&quot;:&quot;elbowEdgeStyle&quot;,&quot;elbow&quot;:&quot;vertical&quot;,&quot;curved&quot;:0,&quot;rounded&quot;:0};" parent="1" vertex="1">
          <mxGeometry x="560" y="40" width="100" height="220" as="geometry" />
        </mxCell>
        <mxCell id="Fiu_bVgfJRJ2x_Z5XWvr-12" value="" style="html=1;points=[];perimeter=orthogonalPerimeter;outlineConnect=0;targetShapes=umlLifeline;portConstraint=eastwest;newEdgeStyle={&quot;edgeStyle&quot;:&quot;elbowEdgeStyle&quot;,&quot;elbow&quot;:&quot;vertical&quot;,&quot;curved&quot;:0,&quot;rounded&quot;:0};" parent="Fiu_bVgfJRJ2x_Z5XWvr-11" vertex="1">
          <mxGeometry x="45" y="72" width="10" height="75" as="geometry" />
        </mxCell>
        <mxCell id="Fiu_bVgfJRJ2x_Z5XWvr-13" value="ExecuteSave()" style="html=1;verticalAlign=bottom;endArrow=block;edgeStyle=elbowEdgeStyle;elbow=horizontal;curved=0;rounded=0;" parent="1" edge="1">
          <mxGeometry relative="1" as="geometry">
            <mxPoint x="460" y="149.68" as="sourcePoint" />
            <Array as="points">
              <mxPoint x="536" y="134.68" />
            </Array>
            <mxPoint x="600" y="149.68" as="targetPoint" />
            <mxPoint as="offset" />
          </mxGeometry>
        </mxCell>
        <mxCell id="Fiu_bVgfJRJ2x_Z5XWvr-14" value="CopyDirectory()" style="html=1;verticalAlign=bottom;endArrow=block;edgeStyle=elbowEdgeStyle;elbow=horizontal;curved=0;rounded=0;" parent="1" edge="1">
          <mxGeometry relative="1" as="geometry">
            <mxPoint x="625" y="150" as="sourcePoint" />
            <Array as="points">
              <mxPoint x="710" y="170" />
            </Array>
            <mxPoint x="620" y="180" as="targetPoint" />
            <mxPoint as="offset" />
          </mxGeometry>
        </mxCell>
        <mxCell id="Fiu_bVgfJRJ2x_Z5XWvr-15" value="" style="html=1;verticalAlign=bottom;endArrow=open;dashed=1;endSize=8;edgeStyle=elbowEdgeStyle;elbow=horizontal;curved=0;rounded=0;" parent="1" edge="1">
          <mxGeometry relative="1" as="geometry">
            <mxPoint x="458" y="186" as="targetPoint" />
            <Array as="points">
              <mxPoint x="523" y="186" />
            </Array>
            <mxPoint x="598" y="186" as="sourcePoint" />
          </mxGeometry>
        </mxCell>
        <mxCell id="Fiu_bVgfJRJ2x_Z5XWvr-16" value="GetNumbersToExecute()" style="html=1;verticalAlign=bottom;endArrow=block;edgeStyle=elbowEdgeStyle;elbow=horizontal;curved=0;rounded=0;" parent="1" edge="1">
          <mxGeometry x="0.0065" relative="1" as="geometry">
            <mxPoint x="465" y="110" as="sourcePoint" />
            <Array as="points">
              <mxPoint x="528" y="57" />
            </Array>
            <mxPoint x="460" y="134" as="targetPoint" />
            <mxPoint as="offset" />
          </mxGeometry>
        </mxCell>
        <mxCell id="Fiu_bVgfJRJ2x_Z5XWvr-17" value="&lt;span style=&quot;font-family: Helvetica; font-size: 11px; font-style: normal; font-variant-ligatures: normal; font-variant-caps: normal; font-weight: 400; letter-spacing: normal; orphans: 2; text-align: center; text-indent: 0px; text-transform: none; widows: 2; word-spacing: 0px; -webkit-text-stroke-width: 0px; background-color: rgb(255, 255, 255); text-decoration-thickness: initial; text-decoration-style: initial; text-decoration-color: initial; float: none; display: inline !important;&quot;&gt;&lt;font color=&quot;#ff3333&quot;&gt;- canFileBeCopied()&lt;/font&gt;&lt;/span&gt;" style="html=1;verticalAlign=bottom;endArrow=block;edgeStyle=elbowEdgeStyle;elbow=horizontal;curved=0;rounded=0;strokeColor=#FF3333;" parent="1" edge="1">
          <mxGeometry x="0.0685" y="46" relative="1" as="geometry">
            <mxPoint x="620" y="160" as="sourcePoint" />
            <Array as="points">
              <mxPoint x="688" y="97" />
            </Array>
            <mxPoint x="620" y="170" as="targetPoint" />
            <mxPoint x="22" y="-6" as="offset" />
          </mxGeometry>
        </mxCell>
        <mxCell id="Fiu_bVgfJRJ2x_Z5XWvr-18" value="&lt;font color=&quot;#e81111&quot;&gt;- AddLog ()&lt;br&gt;&lt;/font&gt;- &lt;font color=&quot;#ff3333&quot;&gt;SaveLogsToJson()&lt;/font&gt;" style="text;html=1;strokeColor=none;fillColor=none;align=center;verticalAlign=middle;whiteSpace=wrap;rounded=0;" parent="1" vertex="1">
          <mxGeometry x="640" y="200" width="130" height="40" as="geometry" />
        </mxCell>
        <mxCell id="Fiu_bVgfJRJ2x_Z5XWvr-19" value="&lt;div&gt;CryptoSoft&lt;/div&gt;" style="shape=umlLifeline;perimeter=lifelinePerimeter;whiteSpace=wrap;html=1;container=0;dropTarget=0;collapsible=0;recursiveResize=0;outlineConnect=0;portConstraint=eastwest;newEdgeStyle={&quot;edgeStyle&quot;:&quot;elbowEdgeStyle&quot;,&quot;elbow&quot;:&quot;vertical&quot;,&quot;curved&quot;:0,&quot;rounded&quot;:0};" parent="1" vertex="1">
          <mxGeometry x="840" y="70" width="100" height="220" as="geometry" />
        </mxCell>
        <mxCell id="Fiu_bVgfJRJ2x_Z5XWvr-20" value="" style="html=1;points=[];perimeter=orthogonalPerimeter;outlineConnect=0;targetShapes=umlLifeline;portConstraint=eastwest;newEdgeStyle={&quot;edgeStyle&quot;:&quot;elbowEdgeStyle&quot;,&quot;elbow&quot;:&quot;vertical&quot;,&quot;curved&quot;:0,&quot;rounded&quot;:0};" parent="Fiu_bVgfJRJ2x_Z5XWvr-19" vertex="1">
          <mxGeometry x="45" y="72" width="10" height="38" as="geometry" />
        </mxCell>
        <mxCell id="Fiu_bVgfJRJ2x_Z5XWvr-21" value="" style="html=1;verticalAlign=bottom;endArrow=open;dashed=1;endSize=8;edgeStyle=elbowEdgeStyle;elbow=vertical;curved=0;rounded=0;" parent="1" target="Fiu_bVgfJRJ2x_Z5XWvr-19" edge="1">
          <mxGeometry relative="1" as="geometry">
            <mxPoint x="790" y="130" as="targetPoint" />
            <Array as="points">
              <mxPoint x="795" y="160" />
            </Array>
            <mxPoint x="720" y="160" as="sourcePoint" />
            <mxPoint as="offset" />
          </mxGeometry>
        </mxCell>
        <mxCell id="Fiu_bVgfJRJ2x_Z5XWvr-24" value="ProcessCryptoSoft()" style="edgeLabel;html=1;align=center;verticalAlign=middle;resizable=0;points=[];" parent="Fiu_bVgfJRJ2x_Z5XWvr-21" vertex="1" connectable="0">
          <mxGeometry x="0.0832" y="-1" relative="1" as="geometry">
            <mxPoint as="offset" />
          </mxGeometry>
        </mxCell>
        <mxCell id="Fiu_bVgfJRJ2x_Z5XWvr-22" value="(Logiciel extérieur)" style="rounded=0;whiteSpace=wrap;html=1;" parent="1" vertex="1">
          <mxGeometry x="830" width="120" height="60" as="geometry" />
        </mxCell>
        <mxCell id="Fiu_bVgfJRJ2x_Z5XWvr-27" value="" style="html=1;verticalAlign=bottom;endArrow=open;dashed=1;endSize=8;edgeStyle=elbowEdgeStyle;elbow=horizontal;curved=0;rounded=0;" parent="1" edge="1">
          <mxGeometry relative="1" as="geometry">
            <mxPoint x="710" y="179.6" as="targetPoint" />
            <Array as="points">
              <mxPoint x="780" y="179.6" />
            </Array>
            <mxPoint x="889.5" y="179.6" as="sourcePoint" />
          </mxGeometry>
        </mxCell>
        <mxCell id="Fiu_bVgfJRJ2x_Z5XWvr-28" value="return int" style="edgeLabel;html=1;align=center;verticalAlign=middle;resizable=0;points=[];" parent="Fiu_bVgfJRJ2x_Z5XWvr-27" vertex="1" connectable="0">
          <mxGeometry x="0.0797" relative="1" as="geometry">
            <mxPoint as="offset" />
          </mxGeometry>
        </mxCell>
      </root>
    </mxGraphModel>
  </diagram>
</mxfile>
